<svg width="691" height="140" viewBox="0 0 691 140" fill="none" xmlns="http://www.w3.org/2000/svg">
<rect width="691" height="140" rx="10" fill="url(#paint0_linear)"/>
<path d="M180.455 43.808C181.594 44.1253 182.471 44.704 183.087 45.544C183.722 46.384 184.039 47.4107 184.039 48.624C184.039 50.304 183.432 51.62 182.219 52.572C181.024 53.524 179.372 54 177.263 54H170.039C169.498 54 169.068 53.8507 168.751 53.552C168.452 53.2533 168.303 52.8333 168.303 52.292V35.968C168.303 35.4267 168.452 35.0067 168.751 34.708C169.068 34.4093 169.498 34.26 170.039 34.26H176.983C179.036 34.26 180.642 34.7173 181.799 35.632C182.975 36.528 183.563 37.788 183.563 39.412C183.563 40.4573 183.283 41.3627 182.723 42.128C182.182 42.8933 181.426 43.4533 180.455 43.808ZM171.831 42.576H176.395C178.878 42.576 180.119 41.652 180.119 39.804C180.119 38.8707 179.811 38.18 179.195 37.732C178.579 37.284 177.646 37.06 176.395 37.06H171.831V42.576ZM176.871 51.2C178.178 51.2 179.13 50.9667 179.727 50.5C180.324 50.0333 180.623 49.3053 180.623 48.316C180.623 47.3267 180.315 46.5893 179.699 46.104C179.102 45.6187 178.159 45.376 176.871 45.376H171.831V51.2H176.871ZM193.492 54.224C192.092 54.224 190.86 53.9347 189.796 53.356C188.751 52.7773 187.939 51.9467 187.36 50.864C186.781 49.7813 186.492 48.5213 186.492 47.084C186.492 45.6467 186.781 44.396 187.36 43.332C187.939 42.2493 188.751 41.4187 189.796 40.84C190.86 40.2613 192.092 39.972 193.492 39.972C194.892 39.972 196.115 40.2613 197.16 40.84C198.224 41.4187 199.036 42.2493 199.596 43.332C200.175 44.396 200.464 45.6467 200.464 47.084C200.464 48.5213 200.175 49.7813 199.596 50.864C199.036 51.9467 198.224 52.7773 197.16 53.356C196.115 53.9347 194.892 54.224 193.492 54.224ZM193.464 51.508C194.603 51.508 195.471 51.1347 196.068 50.388C196.665 49.6413 196.964 48.54 196.964 47.084C196.964 45.6467 196.665 44.5547 196.068 43.808C195.471 43.0427 194.612 42.66 193.492 42.66C192.372 42.66 191.504 43.0427 190.888 43.808C190.291 44.5547 189.992 45.6467 189.992 47.084C189.992 48.54 190.291 49.6413 190.888 50.388C191.485 51.1347 192.344 51.508 193.464 51.508ZM209.738 54.224C208.338 54.224 207.106 53.9347 206.042 53.356C204.996 52.7773 204.184 51.9467 203.606 50.864C203.027 49.7813 202.738 48.5213 202.738 47.084C202.738 45.6467 203.027 44.396 203.606 43.332C204.184 42.2493 204.996 41.4187 206.042 40.84C207.106 40.2613 208.338 39.972 209.738 39.972C211.138 39.972 212.36 40.2613 213.406 40.84C214.47 41.4187 215.282 42.2493 215.842 43.332C216.42 44.396 216.71 45.6467 216.71 47.084C216.71 48.5213 216.42 49.7813 215.842 50.864C215.282 51.9467 214.47 52.7773 213.406 53.356C212.36 53.9347 211.138 54.224 209.738 54.224ZM209.71 51.508C210.848 51.508 211.716 51.1347 212.314 50.388C212.911 49.6413 213.21 48.54 213.21 47.084C213.21 45.6467 212.911 44.5547 212.314 43.808C211.716 43.0427 210.858 42.66 209.738 42.66C208.618 42.66 207.75 43.0427 207.134 43.808C206.536 44.5547 206.238 45.6467 206.238 47.084C206.238 48.54 206.536 49.6413 207.134 50.388C207.731 51.1347 208.59 51.508 209.71 51.508ZM231.919 51.284C232.292 51.6387 232.479 52.04 232.479 52.488C232.479 52.9173 232.32 53.3 232.003 53.636C231.704 53.972 231.35 54.14 230.939 54.14C230.528 54.14 230.146 53.972 229.791 53.636L223.239 47.7V52.488C223.239 53.0293 223.071 53.44 222.735 53.72C222.399 54 221.979 54.14 221.475 54.14C220.971 54.14 220.551 54 220.215 53.72C219.898 53.44 219.739 53.0293 219.739 52.488V35.772C219.739 35.2307 219.898 34.82 220.215 34.54C220.551 34.26 220.971 34.12 221.475 34.12C221.979 34.12 222.399 34.26 222.735 34.54C223.071 34.82 223.239 35.2307 223.239 35.772V46.3L229.231 40.56C229.567 40.224 229.95 40.056 230.379 40.056C230.808 40.056 231.182 40.2147 231.499 40.532C231.816 40.8493 231.975 41.2227 231.975 41.652C231.975 42.0813 231.798 42.4733 231.443 42.828L227.047 46.916L231.919 51.284ZM248.568 39.972C250.472 39.972 251.882 40.448 252.796 41.4C253.73 42.3333 254.196 43.7613 254.196 45.684V52.516C254.196 53.02 254.047 53.4213 253.748 53.72C253.45 54 253.039 54.14 252.516 54.14C252.031 54.14 251.63 53.9907 251.312 53.692C251.014 53.3933 250.864 53.0013 250.864 52.516V51.9C250.547 52.628 250.043 53.1973 249.352 53.608C248.68 54.0187 247.896 54.224 247 54.224C246.086 54.224 245.255 54.0373 244.508 53.664C243.762 53.2907 243.174 52.7773 242.744 52.124C242.315 51.4707 242.1 50.7427 242.1 49.94C242.1 48.932 242.352 48.1387 242.856 47.56C243.379 46.9813 244.219 46.5613 245.376 46.3C246.534 46.0387 248.13 45.908 250.164 45.908H250.864V45.264C250.864 44.3493 250.668 43.6867 250.276 43.276C249.884 42.8467 249.25 42.632 248.372 42.632C247.831 42.632 247.28 42.716 246.72 42.884C246.16 43.0333 245.498 43.2573 244.732 43.556C244.247 43.7987 243.892 43.92 243.668 43.92C243.332 43.92 243.052 43.7987 242.828 43.556C242.623 43.3133 242.52 42.996 242.52 42.604C242.52 42.2867 242.595 42.016 242.744 41.792C242.912 41.5493 243.183 41.3253 243.556 41.12C244.21 40.7653 244.984 40.4853 245.88 40.28C246.795 40.0747 247.691 39.972 248.568 39.972ZM247.7 51.704C248.634 51.704 249.39 51.396 249.968 50.78C250.566 50.1453 250.864 49.3333 250.864 48.344V47.756H250.36C249.11 47.756 248.139 47.812 247.448 47.924C246.758 48.036 246.263 48.232 245.964 48.512C245.666 48.792 245.516 49.1747 245.516 49.66C245.516 50.2573 245.722 50.752 246.132 51.144C246.562 51.5173 247.084 51.704 247.7 51.704ZM272.551 36.864C271.692 36.92 271.067 37.1813 270.675 37.648C270.283 38.1147 270.087 38.7867 270.087 39.664V40.308H272.467C273.512 40.308 274.035 40.7467 274.035 41.624C274.035 42.5013 273.512 42.94 272.467 42.94H270.087V52.488C270.087 53.0293 269.919 53.44 269.583 53.72C269.266 54 268.855 54.14 268.351 54.14C267.847 54.14 267.427 54 267.091 53.72C266.755 53.44 266.587 53.0293 266.587 52.488V42.94H265.187C264.142 42.94 263.619 42.5013 263.619 41.624C263.619 40.7467 264.142 40.308 265.187 40.308H266.587V40.112C266.587 38.3573 267.044 36.9853 267.959 35.996C268.892 34.988 270.199 34.4187 271.879 34.288L272.607 34.232C273.354 34.176 273.876 34.26 274.175 34.484C274.492 34.6893 274.651 35.016 274.651 35.464C274.651 36.2667 274.194 36.7147 273.279 36.808L272.551 36.864ZM283.454 40.028C283.939 39.9907 284.322 40.0933 284.602 40.336C284.882 40.5787 285.022 40.9427 285.022 41.428C285.022 41.932 284.901 42.3053 284.658 42.548C284.415 42.7907 283.977 42.9493 283.342 43.024L282.502 43.108C281.401 43.22 280.589 43.5933 280.066 44.228C279.562 44.8627 279.31 45.656 279.31 46.608V52.488C279.31 53.0293 279.142 53.4493 278.806 53.748C278.47 54.028 278.05 54.168 277.546 54.168C277.042 54.168 276.622 54.028 276.286 53.748C275.969 53.4493 275.81 53.0293 275.81 52.488V41.652C275.81 41.1293 275.969 40.728 276.286 40.448C276.622 40.168 277.033 40.028 277.518 40.028C278.003 40.028 278.395 40.168 278.694 40.448C278.993 40.7093 279.142 41.092 279.142 41.596V42.716C279.497 41.8947 280.019 41.26 280.71 40.812C281.419 40.364 282.203 40.112 283.062 40.056L283.454 40.028ZM297.231 50.248C297.549 50.248 297.801 50.3693 297.987 50.612C298.193 50.8547 298.295 51.1813 298.295 51.592C298.295 52.1707 297.95 52.656 297.259 53.048C296.625 53.4027 295.906 53.692 295.103 53.916C294.301 54.1213 293.535 54.224 292.807 54.224C290.605 54.224 288.859 53.5893 287.571 52.32C286.283 51.0507 285.639 49.3147 285.639 47.112C285.639 45.712 285.919 44.4707 286.479 43.388C287.039 42.3053 287.823 41.4653 288.831 40.868C289.858 40.2707 291.015 39.972 292.303 39.972C293.535 39.972 294.609 40.2427 295.523 40.784C296.438 41.3253 297.147 42.0907 297.651 43.08C298.155 44.0693 298.407 45.236 298.407 46.58C298.407 47.3827 298.053 47.784 297.343 47.784H289.083C289.195 49.072 289.559 50.024 290.175 50.64C290.791 51.2373 291.687 51.536 292.863 51.536C293.461 51.536 293.983 51.4613 294.431 51.312C294.898 51.1627 295.421 50.9573 295.999 50.696C296.559 50.3973 296.97 50.248 297.231 50.248ZM292.387 42.436C291.435 42.436 290.67 42.7347 290.091 43.332C289.531 43.9293 289.195 44.788 289.083 45.908H295.411C295.374 44.7693 295.094 43.9107 294.571 43.332C294.049 42.7347 293.321 42.436 292.387 42.436ZM312.246 50.248C312.564 50.248 312.816 50.3693 313.002 50.612C313.208 50.8547 313.31 51.1813 313.31 51.592C313.31 52.1707 312.965 52.656 312.274 53.048C311.64 53.4027 310.921 53.692 310.118 53.916C309.316 54.1213 308.55 54.224 307.822 54.224C305.62 54.224 303.874 53.5893 302.586 52.32C301.298 51.0507 300.654 49.3147 300.654 47.112C300.654 45.712 300.934 44.4707 301.494 43.388C302.054 42.3053 302.838 41.4653 303.846 40.868C304.873 40.2707 306.03 39.972 307.318 39.972C308.55 39.972 309.624 40.2427 310.538 40.784C311.453 41.3253 312.162 42.0907 312.666 43.08C313.17 44.0693 313.422 45.236 313.422 46.58C313.422 47.3827 313.068 47.784 312.358 47.784H304.098C304.21 49.072 304.574 50.024 305.19 50.64C305.806 51.2373 306.702 51.536 307.878 51.536C308.476 51.536 308.998 51.4613 309.446 51.312C309.913 51.1627 310.436 50.9573 311.014 50.696C311.574 50.3973 311.985 50.248 312.246 50.248ZM307.402 42.436C306.45 42.436 305.685 42.7347 305.106 43.332C304.546 43.9293 304.21 44.788 304.098 45.908H310.426C310.389 44.7693 310.109 43.9107 309.586 43.332C309.064 42.7347 308.336 42.436 307.402 42.436ZM331.279 51.564C332.212 51.62 332.679 52.04 332.679 52.824C332.679 53.272 332.492 53.6173 332.119 53.86C331.764 54.084 331.251 54.1773 330.579 54.14L329.823 54.084C326.687 53.86 325.119 52.18 325.119 49.044V42.94H323.719C323.215 42.94 322.823 42.828 322.543 42.604C322.282 42.38 322.151 42.0533 322.151 41.624C322.151 41.1947 322.282 40.868 322.543 40.644C322.823 40.42 323.215 40.308 323.719 40.308H325.119V37.732C325.119 37.228 325.278 36.8267 325.595 36.528C325.912 36.2293 326.342 36.08 326.883 36.08C327.406 36.08 327.826 36.2293 328.143 36.528C328.46 36.8267 328.619 37.228 328.619 37.732V40.308H330.999C331.503 40.308 331.886 40.42 332.147 40.644C332.427 40.868 332.567 41.1947 332.567 41.624C332.567 42.0533 332.427 42.38 332.147 42.604C331.886 42.828 331.503 42.94 330.999 42.94H328.619V49.296C328.619 50.6773 329.254 51.4147 330.523 51.508L331.279 51.564ZM342.287 40.028C342.772 39.9907 343.155 40.0933 343.435 40.336C343.715 40.5787 343.855 40.9427 343.855 41.428C343.855 41.932 343.734 42.3053 343.491 42.548C343.248 42.7907 342.81 42.9493 342.175 43.024L341.335 43.108C340.234 43.22 339.422 43.5933 338.899 44.228C338.395 44.8627 338.143 45.656 338.143 46.608V52.488C338.143 53.0293 337.975 53.4493 337.639 53.748C337.303 54.028 336.883 54.168 336.379 54.168C335.875 54.168 335.455 54.028 335.119 53.748C334.802 53.4493 334.643 53.0293 334.643 52.488V41.652C334.643 41.1293 334.802 40.728 335.119 40.448C335.455 40.168 335.866 40.028 336.351 40.028C336.836 40.028 337.228 40.168 337.527 40.448C337.826 40.7093 337.975 41.092 337.975 41.596V42.716C338.33 41.8947 338.852 41.26 339.543 40.812C340.252 40.364 341.036 40.112 341.895 40.056L342.287 40.028ZM347.238 54.168C346.734 54.168 346.314 54.028 345.978 53.748C345.66 53.4493 345.502 53.0293 345.502 52.488V41.68C345.502 41.1387 345.66 40.728 345.978 40.448C346.314 40.168 346.734 40.028 347.238 40.028C347.742 40.028 348.162 40.168 348.498 40.448C348.834 40.728 349.002 41.1387 349.002 41.68V52.488C349.002 53.0293 348.834 53.4493 348.498 53.748C348.162 54.028 347.742 54.168 347.238 54.168ZM347.238 37.536C346.603 37.536 346.099 37.368 345.726 37.032C345.352 36.6773 345.166 36.22 345.166 35.66C345.166 35.1 345.352 34.652 345.726 34.316C346.099 33.98 346.603 33.812 347.238 33.812C347.854 33.812 348.348 33.98 348.722 34.316C349.114 34.652 349.31 35.1 349.31 35.66C349.31 36.22 349.123 36.6773 348.75 37.032C348.376 37.368 347.872 37.536 347.238 37.536ZM358.687 39.972C360.591 39.972 362 40.448 362.915 41.4C363.848 42.3333 364.315 43.7613 364.315 45.684V52.516C364.315 53.02 364.166 53.4213 363.867 53.72C363.568 54 363.158 54.14 362.635 54.14C362.15 54.14 361.748 53.9907 361.431 53.692C361.132 53.3933 360.983 53.0013 360.983 52.516V51.9C360.666 52.628 360.162 53.1973 359.471 53.608C358.799 54.0187 358.015 54.224 357.119 54.224C356.204 54.224 355.374 54.0373 354.627 53.664C353.88 53.2907 353.292 52.7773 352.863 52.124C352.434 51.4707 352.219 50.7427 352.219 49.94C352.219 48.932 352.471 48.1387 352.975 47.56C353.498 46.9813 354.338 46.5613 355.495 46.3C356.652 46.0387 358.248 45.908 360.283 45.908H360.983V45.264C360.983 44.3493 360.787 43.6867 360.395 43.276C360.003 42.8467 359.368 42.632 358.491 42.632C357.95 42.632 357.399 42.716 356.839 42.884C356.279 43.0333 355.616 43.2573 354.851 43.556C354.366 43.7987 354.011 43.92 353.787 43.92C353.451 43.92 353.171 43.7987 352.947 43.556C352.742 43.3133 352.639 42.996 352.639 42.604C352.639 42.2867 352.714 42.016 352.863 41.792C353.031 41.5493 353.302 41.3253 353.675 41.12C354.328 40.7653 355.103 40.4853 355.999 40.28C356.914 40.0747 357.81 39.972 358.687 39.972ZM357.819 51.704C358.752 51.704 359.508 51.396 360.087 50.78C360.684 50.1453 360.983 49.3333 360.983 48.344V47.756H360.479C359.228 47.756 358.258 47.812 357.567 47.924C356.876 48.036 356.382 48.232 356.083 48.512C355.784 48.792 355.635 49.1747 355.635 49.66C355.635 50.2573 355.84 50.752 356.251 51.144C356.68 51.5173 357.203 51.704 357.819 51.704ZM369.748 54.168C369.244 54.168 368.824 54.028 368.488 53.748C368.171 53.4493 368.012 53.0293 368.012 52.488V35.772C368.012 35.2307 368.171 34.82 368.488 34.54C368.824 34.26 369.244 34.12 369.748 34.12C370.252 34.12 370.672 34.26 371.008 34.54C371.344 34.82 371.512 35.2307 371.512 35.772V52.488C371.512 53.0293 371.344 53.4493 371.008 53.748C370.672 54.028 370.252 54.168 369.748 54.168ZM389.079 54.224C387.716 54.224 386.512 53.9347 385.467 53.356C384.44 52.7773 383.647 51.956 383.087 50.892C382.527 49.828 382.247 48.5867 382.247 47.168C382.247 45.7493 382.536 44.4987 383.115 43.416C383.712 42.3147 384.543 41.4653 385.607 40.868C386.671 40.2707 387.894 39.972 389.275 39.972C390.003 39.972 390.731 40.0747 391.459 40.28C392.206 40.4853 392.859 40.7653 393.419 41.12C394.016 41.512 394.315 42.0067 394.315 42.604C394.315 43.0147 394.212 43.3507 394.007 43.612C393.82 43.8547 393.568 43.976 393.251 43.976C393.046 43.976 392.831 43.9293 392.607 43.836C392.383 43.7427 392.159 43.6307 391.935 43.5C391.524 43.2573 391.132 43.0707 390.759 42.94C390.386 42.7907 389.956 42.716 389.471 42.716C388.314 42.716 387.418 43.0987 386.783 43.864C386.167 44.6107 385.859 45.6933 385.859 47.112C385.859 48.512 386.167 49.5947 386.783 50.36C387.418 51.1067 388.314 51.48 389.471 51.48C389.938 51.48 390.348 51.4147 390.703 51.284C391.076 51.1347 391.487 50.9387 391.935 50.696C392.215 50.528 392.458 50.4067 392.663 50.332C392.868 50.2387 393.074 50.192 393.279 50.192C393.578 50.192 393.83 50.3227 394.035 50.584C394.24 50.8453 394.343 51.172 394.343 51.564C394.343 51.8813 394.268 52.1613 394.119 52.404C393.988 52.628 393.764 52.8333 393.447 53.02C392.868 53.3933 392.196 53.692 391.431 53.916C390.666 54.1213 389.882 54.224 389.079 54.224ZM398.551 54.168C398.047 54.168 397.627 54.028 397.291 53.748C396.974 53.4493 396.815 53.0293 396.815 52.488V35.772C396.815 35.2307 396.974 34.82 397.291 34.54C397.627 34.26 398.047 34.12 398.551 34.12C399.055 34.12 399.475 34.26 399.811 34.54C400.147 34.82 400.315 35.2307 400.315 35.772V52.488C400.315 53.0293 400.147 53.4493 399.811 53.748C399.475 54.028 399.055 54.168 398.551 54.168ZM410 39.972C411.904 39.972 413.314 40.448 414.228 41.4C415.162 42.3333 415.628 43.7613 415.628 45.684V52.516C415.628 53.02 415.479 53.4213 415.18 53.72C414.882 54 414.471 54.14 413.948 54.14C413.463 54.14 413.062 53.9907 412.744 53.692C412.446 53.3933 412.296 53.0013 412.296 52.516V51.9C411.979 52.628 411.475 53.1973 410.784 53.608C410.112 54.0187 409.328 54.224 408.432 54.224C407.518 54.224 406.687 54.0373 405.94 53.664C405.194 53.2907 404.606 52.7773 404.176 52.124C403.747 51.4707 403.532 50.7427 403.532 49.94C403.532 48.932 403.784 48.1387 404.288 47.56C404.811 46.9813 405.651 46.5613 406.808 46.3C407.966 46.0387 409.562 45.908 411.596 45.908H412.296V45.264C412.296 44.3493 412.1 43.6867 411.708 43.276C411.316 42.8467 410.682 42.632 409.804 42.632C409.263 42.632 408.712 42.716 408.152 42.884C407.592 43.0333 406.93 43.2573 406.164 43.556C405.679 43.7987 405.324 43.92 405.1 43.92C404.764 43.92 404.484 43.7987 404.26 43.556C404.055 43.3133 403.952 42.996 403.952 42.604C403.952 42.2867 404.027 42.016 404.176 41.792C404.344 41.5493 404.615 41.3253 404.988 41.12C405.642 40.7653 406.416 40.4853 407.312 40.28C408.227 40.0747 409.123 39.972 410 39.972ZM409.132 51.704C410.066 51.704 410.822 51.396 411.4 50.78C411.998 50.1453 412.296 49.3333 412.296 48.344V47.756H411.792C410.542 47.756 409.571 47.812 408.88 47.924C408.19 48.036 407.695 48.232 407.396 48.512C407.098 48.792 406.948 49.1747 406.948 49.66C406.948 50.2573 407.154 50.752 407.564 51.144C407.994 51.5173 408.516 51.704 409.132 51.704ZM424.281 54.224C422.247 54.224 420.604 53.8227 419.353 53.02C418.756 52.6653 418.457 52.1613 418.457 51.508C418.457 51.1347 418.56 50.836 418.765 50.612C418.971 50.3693 419.223 50.248 419.521 50.248C419.839 50.248 420.277 50.3973 420.837 50.696C421.435 50.976 421.976 51.1907 422.461 51.34C422.965 51.4893 423.6 51.564 424.365 51.564C425.149 51.564 425.756 51.4333 426.185 51.172C426.633 50.9107 426.857 50.5467 426.857 50.08C426.857 49.7627 426.764 49.5107 426.577 49.324C426.409 49.1373 426.092 48.9693 425.625 48.82C425.177 48.652 424.487 48.4653 423.553 48.26C421.892 47.924 420.697 47.448 419.969 46.832C419.26 46.216 418.905 45.3667 418.905 44.284C418.905 43.4627 419.148 42.7253 419.633 42.072C420.119 41.4 420.781 40.8867 421.621 40.532C422.48 40.1587 423.451 39.972 424.533 39.972C425.317 39.972 426.073 40.0747 426.801 40.28C427.529 40.4667 428.183 40.7467 428.761 41.12C429.359 41.4933 429.657 41.988 429.657 42.604C429.657 42.9773 429.555 43.2947 429.349 43.556C429.144 43.7987 428.892 43.92 428.593 43.92C428.388 43.92 428.183 43.8827 427.977 43.808C427.791 43.7147 427.548 43.584 427.249 43.416C426.708 43.136 426.241 42.9307 425.849 42.8C425.457 42.6507 424.972 42.576 424.393 42.576C423.703 42.576 423.152 42.716 422.741 42.996C422.349 43.276 422.153 43.6587 422.153 44.144C422.153 44.6107 422.359 44.9653 422.769 45.208C423.18 45.4507 423.973 45.6933 425.149 45.936C426.4 46.1973 427.38 46.496 428.089 46.832C428.799 47.168 429.303 47.588 429.601 48.092C429.919 48.596 430.077 49.24 430.077 50.024C430.077 51.2933 429.545 52.3107 428.481 53.076C427.436 53.8413 426.036 54.224 424.281 54.224ZM438.011 54.224C435.977 54.224 434.334 53.8227 433.083 53.02C432.486 52.6653 432.187 52.1613 432.187 51.508C432.187 51.1347 432.29 50.836 432.495 50.612C432.701 50.3693 432.953 50.248 433.251 50.248C433.569 50.248 434.007 50.3973 434.567 50.696C435.165 50.976 435.706 51.1907 436.191 51.34C436.695 51.4893 437.33 51.564 438.095 51.564C438.879 51.564 439.486 51.4333 439.915 51.172C440.363 50.9107 440.587 50.5467 440.587 50.08C440.587 49.7627 440.494 49.5107 440.307 49.324C440.139 49.1373 439.822 48.9693 439.355 48.82C438.907 48.652 438.217 48.4653 437.283 48.26C435.622 47.924 434.427 47.448 433.699 46.832C432.99 46.216 432.635 45.3667 432.635 44.284C432.635 43.4627 432.878 42.7253 433.363 42.072C433.849 41.4 434.511 40.8867 435.351 40.532C436.21 40.1587 437.181 39.972 438.263 39.972C439.047 39.972 439.803 40.0747 440.531 40.28C441.259 40.4667 441.913 40.7467 442.491 41.12C443.089 41.4933 443.387 41.988 443.387 42.604C443.387 42.9773 443.285 43.2947 443.079 43.556C442.874 43.7987 442.622 43.92 442.323 43.92C442.118 43.92 441.913 43.8827 441.707 43.808C441.521 43.7147 441.278 43.584 440.979 43.416C440.438 43.136 439.971 42.9307 439.579 42.8C439.187 42.6507 438.702 42.576 438.123 42.576C437.433 42.576 436.882 42.716 436.471 42.996C436.079 43.276 435.883 43.6587 435.883 44.144C435.883 44.6107 436.089 44.9653 436.499 45.208C436.91 45.4507 437.703 45.6933 438.879 45.936C440.13 46.1973 441.11 46.496 441.819 46.832C442.529 47.168 443.033 47.588 443.331 48.092C443.649 48.596 443.807 49.24 443.807 50.024C443.807 51.2933 443.275 52.3107 442.211 53.076C441.166 53.8413 439.766 54.224 438.011 54.224Z" fill="white"/>
<rect x="166" y="78" width="148" height="32" rx="4" fill="#E91E63"/>
<path d="M199.644 93.176C200.295 93.3573 200.796 93.688 201.148 94.168C201.511 94.648 201.692 95.2347 201.692 95.928C201.692 96.888 201.345 97.64 200.652 98.184C199.969 98.728 199.025 99 197.82 99H193.692C193.383 99 193.137 98.9147 192.956 98.744C192.785 98.5733 192.7 98.3333 192.7 98.024V88.696C192.7 88.3867 192.785 88.1467 192.956 87.976C193.137 87.8053 193.383 87.72 193.692 87.72H197.66C198.833 87.72 199.751 87.9813 200.412 88.504C201.084 89.016 201.42 89.736 201.42 90.664C201.42 91.2613 201.26 91.7787 200.94 92.216C200.631 92.6533 200.199 92.9733 199.644 93.176ZM194.716 92.472H197.324C198.743 92.472 199.452 91.944 199.452 90.888C199.452 90.3547 199.276 89.96 198.924 89.704C198.572 89.448 198.039 89.32 197.324 89.32H194.716V92.472ZM197.596 97.4C198.343 97.4 198.887 97.2667 199.228 97C199.569 96.7333 199.74 96.3173 199.74 95.752C199.74 95.1867 199.564 94.7653 199.212 94.488C198.871 94.2107 198.332 94.072 197.596 94.072H194.716V97.4H197.596ZM209.126 99.144C208.027 99.144 207.073 98.9093 206.262 98.44C205.462 97.9707 204.843 97.2987 204.406 96.424C203.969 95.5493 203.75 94.5253 203.75 93.352C203.75 92.1787 203.963 91.16 204.39 90.296C204.827 89.4213 205.451 88.7493 206.262 88.28C207.073 87.8107 208.027 87.576 209.126 87.576C210.225 87.576 211.174 87.8107 211.974 88.28C212.785 88.7493 213.403 89.4213 213.83 90.296C214.267 91.16 214.486 92.1787 214.486 93.352C214.486 94.5253 214.267 95.5493 213.83 96.424C213.393 97.2987 212.769 97.9707 211.958 98.44C211.158 98.9093 210.214 99.144 209.126 99.144ZM209.126 97.496C210.161 97.496 210.966 97.1387 211.542 96.424C212.129 95.7093 212.422 94.6853 212.422 93.352C212.422 92.0187 212.129 91 211.542 90.296C210.966 89.5813 210.161 89.224 209.126 89.224C208.081 89.224 207.265 89.5813 206.678 90.296C206.102 91 205.814 92.0187 205.814 93.352C205.814 94.6853 206.102 95.7093 206.678 96.424C207.265 97.1387 208.081 97.496 209.126 97.496ZM222.075 99.144C220.976 99.144 220.021 98.9093 219.211 98.44C218.411 97.9707 217.792 97.2987 217.355 96.424C216.917 95.5493 216.699 94.5253 216.699 93.352C216.699 92.1787 216.912 91.16 217.339 90.296C217.776 89.4213 218.4 88.7493 219.211 88.28C220.021 87.8107 220.976 87.576 222.075 87.576C223.173 87.576 224.123 87.8107 224.923 88.28C225.733 88.7493 226.352 89.4213 226.779 90.296C227.216 91.16 227.435 92.1787 227.435 93.352C227.435 94.5253 227.216 95.5493 226.779 96.424C226.341 97.2987 225.717 97.9707 224.907 98.44C224.107 98.9093 223.163 99.144 222.075 99.144ZM222.075 97.496C223.109 97.496 223.915 97.1387 224.491 96.424C225.077 95.7093 225.371 94.6853 225.371 93.352C225.371 92.0187 225.077 91 224.491 90.296C223.915 89.5813 223.109 89.224 222.075 89.224C221.029 89.224 220.213 89.5813 219.627 90.296C219.051 91 218.763 92.0187 218.763 93.352C218.763 94.6853 219.051 95.7093 219.627 96.424C220.213 97.1387 221.029 97.496 222.075 97.496ZM238.751 97.448C238.965 97.6507 239.071 97.88 239.071 98.136C239.071 98.3813 238.975 98.6 238.783 98.792C238.602 98.9733 238.383 99.064 238.127 99.064C237.861 99.064 237.615 98.952 237.391 98.728L232.063 93.736V98.056C232.063 98.3653 231.967 98.616 231.775 98.808C231.594 99 231.343 99.096 231.023 99.096C230.714 99.096 230.463 99 230.271 98.808C230.09 98.616 229.999 98.3653 229.999 98.056V88.664C229.999 88.3547 230.09 88.1093 230.271 87.928C230.463 87.736 230.714 87.64 231.023 87.64C231.343 87.64 231.594 87.736 231.775 87.928C231.967 88.1093 232.063 88.3547 232.063 88.664V92.776L237.215 87.944C237.407 87.752 237.626 87.656 237.871 87.656C238.117 87.656 238.33 87.752 238.511 87.944C238.703 88.1253 238.799 88.3387 238.799 88.584C238.799 88.8293 238.693 89.0533 238.479 89.256L234.175 93.192L238.751 97.448ZM254.41 87.64C254.708 87.64 254.943 87.736 255.114 87.928C255.295 88.1093 255.386 88.3547 255.386 88.664V98.056C255.386 98.3653 255.295 98.616 255.114 98.808C254.932 99 254.698 99.096 254.41 99.096C254.068 99.096 253.807 98.9733 253.626 98.728L247.786 91.128V98.056C247.786 98.3653 247.7 98.616 247.53 98.808C247.359 99 247.124 99.096 246.826 99.096C246.527 99.096 246.292 99 246.122 98.808C245.951 98.616 245.866 98.3653 245.866 98.056V88.664C245.866 88.3547 245.956 88.1093 246.138 87.928C246.319 87.736 246.559 87.64 246.858 87.64C247.188 87.64 247.444 87.7627 247.626 88.008L253.45 95.576V88.664C253.45 88.3547 253.535 88.1093 253.706 87.928C253.887 87.736 254.122 87.64 254.41 87.64ZM263.323 99.144C262.224 99.144 261.269 98.9093 260.459 98.44C259.659 97.9707 259.04 97.2987 258.603 96.424C258.165 95.5493 257.947 94.5253 257.947 93.352C257.947 92.1787 258.16 91.16 258.587 90.296C259.024 89.4213 259.648 88.7493 260.459 88.28C261.269 87.8107 262.224 87.576 263.323 87.576C264.421 87.576 265.371 87.8107 266.171 88.28C266.981 88.7493 267.6 89.4213 268.027 90.296C268.464 91.16 268.683 92.1787 268.683 93.352C268.683 94.5253 268.464 95.5493 268.027 96.424C267.589 97.2987 266.965 97.9707 266.155 98.44C265.355 98.9093 264.411 99.144 263.323 99.144ZM263.323 97.496C264.357 97.496 265.163 97.1387 265.739 96.424C266.325 95.7093 266.619 94.6853 266.619 93.352C266.619 92.0187 266.325 91 265.739 90.296C265.163 89.5813 264.357 89.224 263.323 89.224C262.277 89.224 261.461 89.5813 260.875 90.296C260.299 91 260.011 92.0187 260.011 93.352C260.011 94.6853 260.299 95.7093 260.875 96.424C261.461 97.1387 262.277 97.496 263.323 97.496ZM285.11 88.264C285.185 88.0507 285.302 87.8907 285.462 87.784C285.633 87.6773 285.82 87.624 286.022 87.624C286.278 87.624 286.497 87.704 286.678 87.864C286.87 88.024 286.966 88.2373 286.966 88.504C286.966 88.6 286.94 88.7387 286.886 88.92L283.446 98.44C283.361 98.6533 283.217 98.8187 283.014 98.936C282.822 99.0533 282.609 99.112 282.374 99.112C282.14 99.112 281.921 99.0533 281.718 98.936C281.516 98.8187 281.377 98.6533 281.302 98.44L278.646 90.904L275.942 98.44C275.857 98.6533 275.713 98.8187 275.51 98.936C275.318 99.0533 275.105 99.112 274.87 99.112C274.636 99.112 274.417 99.0533 274.214 98.936C274.022 98.8187 273.889 98.6533 273.814 98.44L270.374 88.92C270.321 88.76 270.294 88.6213 270.294 88.504C270.294 88.2373 270.39 88.024 270.582 87.864C270.785 87.704 271.02 87.624 271.286 87.624C271.5 87.624 271.692 87.6773 271.862 87.784C272.033 87.8907 272.156 88.0507 272.23 88.264L274.95 96.088L277.75 88.312C277.825 88.0987 277.948 87.9333 278.118 87.816C278.289 87.688 278.476 87.624 278.678 87.624C278.881 87.624 279.068 87.688 279.238 87.816C279.42 87.9333 279.548 88.104 279.622 88.328L282.342 96.184L285.11 88.264Z" fill="white"/>
<g style="mix-blend-mode:luminosity" opacity="0.6" clip-path="url(#clip0)">
<path d="M606.205 20.0003C586.551 20.1046 576.684 53.9063 573.001 71.2813C569.319 88.6565 573.167 124.3 601.731 119.572C606.348 118.808 607.426 118.651 611.232 116.741C618.006 113.34 626.024 110.948 633.269 110.225C636.24 109.929 639.996 108.948 641.985 108.591C657.927 105.724 674.197 90.2784 669.271 74.0944C665.572 61.9405 654.735 57.0479 643.881 57.7206C637.921 58.0899 631.577 54.5934 630.305 50.7307C626.162 38.1493 621.396 19.9198 606.205 20.0003Z" fill="url(#paint1_linear)"/>
<path opacity="0.1" d="M620.631 30.9663L595.968 41.029C595.158 41.3594 595.158 42.5067 595.968 42.8374L620.631 52.9001C620.868 52.9966 621.132 52.9966 621.369 52.9001L646.032 42.8374C646.842 42.5069 646.842 41.3596 646.032 41.029L621.369 30.9663C621.132 30.8698 620.868 30.8698 620.631 30.9663Z" fill="#590BB2"/>
<path opacity="0.1" d="M665.139 98.3691V103.293C665.139 104.371 664.266 105.246 663.186 105.246H578.814C577.734 105.246 576.861 104.371 576.861 103.293V98.3691C576.861 97.291 577.734 96.416 578.814 96.416H605.378C605.661 96.416 605.931 96.5391 606.116 96.7535L608.631 99.6582H633.369L635.884 96.7535C636.069 96.5393 636.339 96.416 636.622 96.416H663.186C664.266 96.416 665.139 97.291 665.139 98.3691Z" fill="#590BB2"/>
<path d="M659.29 95.7685H582.71V46.9923C582.71 45.1359 584.215 43.631 586.071 43.631H655.929C657.785 43.631 659.29 45.1359 659.29 46.9923V95.7685H659.29Z" fill="#C182F9"/>
<path d="M665.139 93.0957V98.0195C665.139 99.0977 664.266 99.9727 663.186 99.9727H578.814C577.734 99.9727 576.861 99.0977 576.861 98.0195V93.0957C576.861 92.0176 577.734 91.1426 578.814 91.1426H605.378C605.661 91.1426 605.931 91.2656 606.116 91.4801L608.631 94.3848H633.369L635.884 91.4801C636.069 91.2658 636.339 91.1426 636.622 91.1426H663.186C664.266 91.1426 665.139 92.0176 665.139 93.0957Z" fill="#E2CCFF"/>
<path d="M653.779 86.4604H588.221C587.682 86.4604 587.245 86.0231 587.245 85.4838V49.4619C587.245 48.9227 587.682 48.4854 588.221 48.4854H653.779C654.318 48.4854 654.755 48.9227 654.755 49.4619V85.4838C654.755 86.0231 654.318 86.4604 653.779 86.4604Z" fill="white"/>
<path d="M654.755 61.2111V49.4619C654.755 48.9227 654.318 48.4854 653.779 48.4854H588.221C587.682 48.4854 587.245 48.9227 587.245 49.4619V61.2111H654.755Z" fill="#FFD5B8"/>
<path d="M649.231 70.3728H614.949C614.41 70.3728 613.973 69.9355 613.973 69.3962C613.973 68.857 614.41 68.4197 614.949 68.4197H649.231C649.77 68.4197 650.207 68.857 650.207 69.3962C650.207 69.9355 649.77 70.3728 649.231 70.3728Z" fill="#FFA052"/>
<path d="M649.231 73.7913H614.949C614.41 73.7913 613.973 73.354 613.973 72.8147C613.973 72.2754 614.41 71.8381 614.949 71.8381H649.231C649.77 71.8381 650.207 72.2754 650.207 72.8147C650.207 73.354 649.77 73.7913 649.231 73.7913Z" fill="#FFA052"/>
<path d="M649.231 77.2097H614.949C614.41 77.2097 613.973 76.7724 613.973 76.2332C613.973 75.6939 614.41 75.2566 614.949 75.2566H649.231C649.77 75.2566 650.207 75.6939 650.207 76.2332C650.207 76.7724 649.77 77.2097 649.231 77.2097Z" fill="#FFA052"/>
<path d="M649.231 78.6753C649.77 78.6753 650.207 79.1126 650.207 79.6519C650.207 80.1911 649.77 80.6284 649.231 80.6284H614.949C614.41 80.6284 613.973 80.1911 613.973 79.6519C613.973 79.1126 614.41 78.6753 614.949 78.6753H649.231Z" fill="#FFA052"/>
<path d="M602.441 70.3728H592.769C592.23 70.3728 591.793 69.9355 591.793 69.3962C591.793 68.857 592.23 68.4197 592.769 68.4197H602.441C602.981 68.4197 603.418 68.857 603.418 69.3962C603.418 69.9355 602.98 70.3728 602.441 70.3728Z" fill="#C182F9"/>
<path d="M607.715 73.7913H592.769C592.23 73.7913 591.793 73.354 591.793 72.8147C591.793 72.2754 592.23 71.8381 592.769 71.8381H607.715C608.254 71.8381 608.691 72.2754 608.691 72.8147C608.691 73.354 608.254 73.7913 607.715 73.7913Z" fill="#C182F9"/>
<path d="M607.715 77.2095H592.769C592.23 77.2095 591.793 76.7722 591.793 76.2329C591.793 75.6937 592.23 75.2563 592.769 75.2563H607.715C608.254 75.2563 608.691 75.6937 608.691 76.2329C608.691 76.7722 608.254 77.2095 607.715 77.2095Z" fill="#C182F9"/>
<path d="M607.715 80.6279H592.769C592.23 80.6279 591.793 80.1906 591.793 79.6514C591.793 79.1121 592.23 78.6748 592.769 78.6748H607.715C608.254 78.6748 608.691 79.1121 608.691 79.6514C608.691 80.1906 608.254 80.6279 607.715 80.6279Z" fill="#C182F9"/>
<path d="M593.071 66.8469C593.611 66.8469 594.048 66.4097 594.048 65.8704C594.048 65.331 593.611 64.8938 593.071 64.8938C592.532 64.8938 592.095 65.331 592.095 65.8704C592.095 66.4097 592.532 66.8469 593.071 66.8469Z" fill="#FFA052"/>
<path d="M596.245 66.8469C596.785 66.8469 597.222 66.4097 597.222 65.8704C597.222 65.331 596.785 64.8938 596.245 64.8938C595.706 64.8938 595.269 65.331 595.269 65.8704C595.269 66.4097 595.706 66.8469 596.245 66.8469Z" fill="#FFA052"/>
<path d="M590.629 32.3735H590.043V31.7876C590.043 31.2483 589.606 30.811 589.066 30.811C588.527 30.811 588.09 31.2483 588.09 31.7876V32.3735H587.504C586.965 32.3735 586.527 32.8108 586.527 33.3501C586.527 33.8894 586.965 34.3267 587.504 34.3267H588.09V34.9126C588.09 35.4519 588.527 35.8892 589.066 35.8892C589.606 35.8892 590.043 35.4519 590.043 34.9126V34.3267H590.629C591.168 34.3267 591.605 33.8894 591.605 33.3501C591.605 32.8108 591.168 32.3735 590.629 32.3735Z" fill="#FFA052"/>
<path d="M604.268 110.137H603.682V109.551C603.682 109.012 603.245 108.574 602.706 108.574C602.166 108.574 601.729 109.012 601.729 109.551V110.137H601.143C600.604 110.137 600.167 110.574 600.167 111.113C600.167 111.653 600.604 112.09 601.143 112.09H601.729V112.676C601.729 113.215 602.166 113.652 602.706 113.652C603.245 113.652 603.682 113.215 603.682 112.676V112.09H604.268C604.807 112.09 605.245 111.653 605.245 111.113C605.245 110.574 604.808 110.137 604.268 110.137Z" fill="#FFA052"/>
<path d="M655.341 35.8823H654.755V35.2964C654.755 34.7571 654.318 34.3198 653.779 34.3198C653.239 34.3198 652.802 34.7571 652.802 35.2964V35.8823H652.216C651.677 35.8823 651.24 36.3196 651.24 36.8589C651.24 37.3981 651.677 37.8354 652.216 37.8354H652.802V38.4214C652.802 38.9606 653.239 39.398 653.779 39.398C654.318 39.398 654.755 38.9606 654.755 38.4214V37.8354H655.341C655.881 37.8354 656.318 37.3981 656.318 36.8589C656.318 36.3196 655.881 35.8823 655.341 35.8823Z" fill="#C182F9"/>
<path d="M599.168 29.5053C598.918 29.5053 598.668 29.41 598.477 29.2194L597.605 28.3475L596.733 29.2194C596.352 29.6006 595.734 29.6006 595.352 29.2194C594.971 28.8379 594.971 28.2196 595.352 27.8383L596.915 26.2758C597.296 25.8946 597.914 25.8946 598.296 26.2758L599.858 27.8383C600.24 28.2198 600.24 28.8381 599.858 29.2194C599.668 29.4098 599.418 29.5053 599.168 29.5053Z" fill="#FDD250"/>
<path d="M615.975 114.462C615.725 114.462 615.475 114.367 615.284 114.177L614.412 113.305L613.54 114.177C613.159 114.558 612.541 114.558 612.159 114.177C611.778 113.795 611.778 113.177 612.159 112.795L613.722 111.233C614.103 110.852 614.721 110.852 615.103 111.233L616.665 112.795C617.047 113.177 617.047 113.795 616.665 114.177C616.475 114.367 616.225 114.462 615.975 114.462Z" fill="#C182F9"/>
<path d="M638.447 38.5082V57.1195C638.447 57.516 638.207 57.8734 637.838 58.0238L621.369 64.7445C621.133 64.8402 620.867 64.8402 620.631 64.7445L604.162 58.0238C603.793 57.8734 603.553 57.516 603.553 57.1195V38.5082H638.447Z" fill="#B557FF"/>
<path d="M638.447 38.5082V43.8226L622.477 50.3383C622.006 50.5316 621.508 50.6293 621 50.6293C620.492 50.6293 619.994 50.5316 619.523 50.3383L603.553 43.8226V38.5082H638.447Z" fill="#9526DD"/>
<path d="M620.631 25.6927L595.968 35.7554C595.158 36.0859 595.158 37.2332 595.968 37.5638L620.631 47.6265C620.868 47.723 621.132 47.723 621.369 47.6265L646.032 37.5638C646.842 37.2333 646.842 36.0861 646.032 35.7554L621.369 25.6927C621.132 25.5962 620.868 25.5962 620.631 25.6927Z" fill="#C182F9"/>
<path d="M635.368 81.9145H630.461C629.921 81.9145 629.484 81.4772 629.484 80.9379V75.2682C629.484 73.3739 631.02 71.8381 632.914 71.8381C634.809 71.8381 636.344 73.3739 636.344 75.2682V80.9379C636.344 81.4772 635.907 81.9145 635.368 81.9145Z" fill="#FFC136"/>
<path d="M632.914 73.4632C634.993 73.4632 636.678 71.7783 636.678 69.6998C636.678 67.6212 634.993 65.9363 632.914 65.9363C630.836 65.9363 629.151 67.6212 629.151 69.6998C629.151 71.7783 630.836 73.4632 632.914 73.4632Z" fill="#FFE783"/>
<path d="M663.186 90.1663H660.266V46.9925C660.266 44.6005 658.32 42.6548 655.929 42.6548H639.423V41.3151L646.401 38.4681C647.139 38.1669 647.616 37.4571 647.616 36.6599C647.616 35.8624 647.139 35.1526 646.401 34.8513L621.738 24.7886C621.262 24.5942 620.738 24.5942 620.262 24.7886L595.599 34.8513C594.861 35.1524 594.384 35.8624 594.384 36.6599C594.384 37.4571 594.861 38.1669 595.599 38.4681L602.577 41.3151V57.1196C602.577 57.9171 603.054 58.6269 603.793 58.928L620.262 65.6477C620.5 65.745 620.75 65.7935 621 65.7935C621.25 65.7935 621.5 65.7448 621.738 65.6477L631.937 61.4862V65.0616C629.791 65.513 628.174 67.421 628.174 69.6999C628.174 70.8659 628.598 71.9341 629.299 72.7606C628.803 73.4733 628.507 74.3358 628.507 75.2681V80.9378C628.507 82.0147 629.384 82.8909 630.461 82.8909H635.367C636.444 82.8909 637.32 82.0147 637.32 80.9378V75.2681C637.32 74.3354 637.028 73.4702 636.532 72.7575C637.231 71.9315 637.654 70.8643 637.654 69.6999C637.654 67.421 636.037 65.513 633.89 65.0616V60.6894L638.208 58.928C638.946 58.6269 639.423 57.9169 639.423 57.1196V44.6079H655.929C657.243 44.6079 658.313 45.6776 658.313 46.9925V91.1429C658.313 91.6821 658.75 92.1194 659.29 92.1194H663.186C663.724 92.1194 664.162 92.5575 664.162 93.096V98.0198C664.162 98.5583 663.724 98.9964 663.186 98.9964H578.814C578.276 98.9964 577.838 98.5583 577.838 98.0198V93.096C577.838 92.5575 578.276 92.1194 578.814 92.1194H605.378L607.893 95.0243C608.078 95.2386 608.347 95.3618 608.631 95.3618H633.369C633.653 95.3618 633.922 95.2388 634.107 95.0243L636.622 92.1194H653.313C653.853 92.1194 654.29 91.6821 654.29 91.1429C654.29 90.6036 653.853 90.1663 653.313 90.1663H636.622C636.055 90.1663 635.516 90.4124 635.145 90.8411L632.923 93.4085H609.077L606.854 90.8411C606.483 90.4122 605.945 90.1663 605.378 90.1663H583.687V46.9925C583.687 45.6776 584.756 44.6079 586.071 44.6079H597.576C598.115 44.6079 598.553 44.1706 598.553 43.6313C598.553 43.0921 598.115 42.6548 597.576 42.6548H586.071C583.68 42.6548 581.734 44.6007 581.734 46.9925V90.1663H578.814C577.199 90.1663 575.885 91.4806 575.885 93.096V98.0198C575.885 99.6352 577.199 100.95 578.814 100.95H663.186C664.801 100.95 666.115 99.6352 666.115 98.0198V93.096C666.115 91.4806 664.801 90.1663 663.186 90.1663ZM634.216 80.9378V78.0081C634.216 77.4688 633.779 77.0315 633.24 77.0315C632.7 77.0315 632.263 77.4688 632.263 78.0081V80.9378H630.461V75.2681C630.461 74.7874 630.602 74.3409 630.843 73.9624C631.469 74.2679 632.172 74.4399 632.914 74.4399C633.656 74.4399 634.359 74.2681 634.985 73.9628C635.225 74.3411 635.368 74.7874 635.368 75.2683L635.369 80.9378H634.216ZM635.701 69.6999C635.701 71.2366 634.451 72.4868 632.914 72.4868C631.377 72.4868 630.127 71.2366 630.127 69.6999C630.127 68.1632 631.377 66.913 632.914 66.913C634.451 66.913 635.701 68.1632 635.701 69.6999ZM621 26.5968L645.663 36.6595L632.513 42.0247L618.755 35.9651C618.261 35.7476 617.685 35.9714 617.468 36.4653C617.25 36.9589 617.474 37.5353 617.968 37.7526L629.998 43.0513L621 46.7224L596.337 36.6595L621 26.5968ZM621 63.8393L604.53 57.1194V42.1118L620.262 48.5306C620.5 48.6278 620.75 48.6763 621 48.6763C621.25 48.6763 621.5 48.6276 621.738 48.5306L631.937 44.3692V59.3769L621 63.8393ZM633.891 58.58V43.5724L637.47 42.112V57.1196L633.891 58.58Z" fill="#590BB2"/>
</g>
<g clip-path="url(#clip1)">
<path d="M91.4909 30.8042C91.2022 30.8042 90.9142 30.8068 90.6269 30.812C83.4694 30.942 76.572 28.3399 71.0083 23.8353C66.0747 19.841 59.7788 17.4629 52.9259 17.5076C37.288 17.6097 24.4 30.8123 24.6588 46.4482C24.7284 50.6585 25.7126 54.6461 27.4212 58.2213C30.3324 64.3129 29.7046 71.5599 25.6595 76.9654C23.9888 79.1979 22.6215 81.7146 21.6388 84.4758C16.402 99.1902 24.138 115.546 38.8409 120.814C53.8137 126.179 70.2333 118.249 75.3732 103.253C75.754 102.142 76.0619 101.024 76.2999 99.9034C77.8106 92.7886 84.0172 87.6951 91.2906 87.7255C91.3574 87.7257 91.4243 87.7259 91.4911 87.7259C111.655 87.7259 128 74.9836 128 59.2652C128 43.5468 111.654 30.8042 91.4909 30.8042Z" fill="url(#paint2_linear)"/>
<path opacity="0.1" d="M109.016 31.4686H38.9844C37.8194 31.4686 36.875 32.413 36.875 33.578V43.703C36.875 44.868 37.8194 45.8124 38.9844 45.8124H89.5037L91.2783 51.0312C91.8394 52.6811 94.173 52.6811 94.7341 51.0312L96.5087 45.8124H109.016C110.181 45.8124 111.125 44.868 111.125 43.703V33.578C111.125 32.413 110.181 31.4686 109.016 31.4686Z" fill="#590BB2"/>
<path opacity="0.1" d="M112.188 55.0947H35.8119C34.0632 55.0947 32.6478 56.5101 32.6478 58.2588V101.277C32.6478 103.026 34.0632 104.441 35.8119 104.441H62.428V109.398C62.428 110.246 63.3772 110.746 64.0775 110.27L66.8851 108.356L69.6927 110.27C70.393 110.746 71.3422 110.246 71.3422 109.398V104.441H112.188C113.937 104.441 115.352 103.026 115.352 101.277V58.2588C115.352 56.5101 113.937 55.0947 112.188 55.0947Z" fill="#590BB2"/>
<path d="M115.352 52.5635V95.5821C115.352 97.3295 113.936 98.7462 112.188 98.7462H35.8122C34.0648 98.7462 32.6481 97.3295 32.6481 95.5821V52.5635C32.6481 50.8161 34.0648 49.3994 35.8122 49.3994H112.188C113.936 49.3994 115.352 50.8159 115.352 52.5635Z" fill="#C182F9"/>
<path d="M108.383 49.3994V93.7343C108.383 94.8993 107.438 95.8436 106.273 95.8436H76.1094C75.5272 95.8436 74.9998 95.6074 74.618 95.2256C74.2362 94.8438 74 94.3165 74 93.7343C74 94.8986 73.055 95.8436 71.8906 95.8436H41.7266C40.5616 95.8436 39.6172 94.8993 39.6172 93.7343V49.3994H108.383Z" fill="#B557FF"/>
<path d="M115.353 88.9598H32.647V52.563C32.647 50.8156 34.0636 49.3989 35.811 49.3989H112.189C113.936 49.3989 115.353 50.8156 115.353 52.563V88.9598Z" fill="#E2CCFF"/>
<path d="M71.3422 90.7051V103.703C71.3422 104.551 70.3929 105.051 69.6926 104.574L66.8851 102.661L64.0775 104.574C63.3772 105.051 62.4279 104.551 62.4279 103.703V90.7051H71.3422Z" fill="#FFE783"/>
<path d="M62.4279 90.7051H71.3422V95.8435H62.4279V90.7051Z" fill="#FDD250"/>
<path d="M74 50.0765V90.0323C74 91.1967 73.055 92.1417 71.8906 92.1417H41.7266C40.5622 92.1417 39.6172 91.1967 39.6172 90.0323V46.9125C39.6172 45.7481 40.5622 44.8031 41.7266 44.8031H68.7266C71.6396 44.8031 74 47.1635 74 50.0765Z" fill="#FF6666"/>
<path d="M74 52.9141V50.0765C74 47.1635 71.6396 44.8031 68.7266 44.8031H41.7266C40.5622 44.8031 39.6172 45.7481 39.6172 46.9125V52.9141H74Z" fill="#FFE783"/>
<path d="M108.383 46.913V90.0328C108.383 91.1972 107.438 92.1422 106.273 92.1422H76.1094C74.945 92.1422 74 91.1972 74 90.0328V50.077C74 47.164 76.3604 44.8036 79.2734 44.8036H106.273C107.438 44.8036 108.383 45.7486 108.383 46.913Z" fill="white"/>
<path d="M74 74.1484V90.0322C74 91.1972 74.9444 92.1416 76.1094 92.1416H106.273C107.438 92.1416 108.383 91.1972 108.383 90.0322V74.1484H74Z" fill="#EFEBFF"/>
<path d="M109.016 25.7733H38.9844C37.8194 25.7733 36.875 26.7177 36.875 27.8827V38.0077C36.875 39.1727 37.8194 40.1171 38.9844 40.1171H89.5037L91.2783 45.3359C91.8394 46.9858 94.173 46.9858 94.7341 45.3359L96.5087 40.1171H109.016C110.181 40.1171 111.125 39.1727 111.125 38.0077V27.8827C111.125 26.7177 110.181 25.7733 109.016 25.7733Z" fill="white"/>
<path d="M95.8763 44.8036L94.733 48.1617C94.172 49.8112 91.839 49.8112 91.2779 48.1617L90.1367 44.8036H95.8763Z" fill="#EFEBFF"/>
<path d="M51.7461 25.7733H38.9844C37.8194 25.7733 36.875 26.7177 36.875 27.8827V38.0077C36.875 39.1727 37.8194 40.1171 38.9844 40.1171H51.7461V25.7733Z" fill="#CCA1FF"/>
<path d="M54.3223 64.8817V70.0111C54.3223 70.4996 54.8524 70.8038 55.2742 70.5576L59.667 67.9928C60.0853 67.7486 60.0853 67.144 59.667 66.8998L55.2742 64.335C54.8521 64.0888 54.3223 64.3932 54.3223 64.8817Z" fill="white"/>
<path d="M44.4763 50.1375C44.9757 50.1375 45.3804 49.7327 45.3804 49.2334C45.3804 48.7341 44.9757 48.3293 44.4763 48.3293C43.977 48.3293 43.5723 48.7341 43.5723 49.2334C43.5723 49.7327 43.977 50.1375 44.4763 50.1375Z" fill="#FF6666"/>
<path d="M47.3603 50.1375C47.8596 50.1375 48.2644 49.7327 48.2644 49.2334C48.2644 48.7341 47.8596 48.3293 47.3603 48.3293C46.861 48.3293 46.4562 48.7341 46.4562 49.2334C46.4562 49.7327 46.861 50.1375 47.3603 50.1375Z" fill="#FF6666"/>
<path d="M50.2444 50.1375C50.7437 50.1375 51.1485 49.7327 51.1485 49.2334C51.1485 48.7341 50.7437 48.3293 50.2444 48.3293C49.7451 48.3293 49.3404 48.7341 49.3404 49.2334C49.3404 49.7327 49.7451 50.1375 50.2444 50.1375Z" fill="#FF6666"/>
<path d="M55.5489 82.6216H45.1033C44.5207 82.6216 44.0486 82.1493 44.0486 81.5669C44.0486 80.9845 44.5207 80.5122 45.1033 80.5122H55.5489C56.1315 80.5122 56.6036 80.9845 56.6036 81.5669C56.6036 82.1493 56.1315 82.6216 55.5489 82.6216Z" fill="#FFBE92"/>
<path d="M61.2442 86.3137H45.1033C44.5207 86.3137 44.0486 85.8414 44.0486 85.259C44.0486 84.6766 44.5207 84.2043 45.1033 84.2043H61.2442C61.8268 84.2043 62.2989 84.6766 62.2989 85.259C62.2989 85.8414 61.8268 86.3137 61.2442 86.3137Z" fill="#FFBE92"/>
<path d="M45.4296 78.8137C46.0121 78.8137 46.4843 78.3415 46.4843 77.759C46.4843 77.1765 46.0121 76.7043 45.4296 76.7043C44.8471 76.7043 44.3749 77.1765 44.3749 77.759C44.3749 78.3415 44.8471 78.8137 45.4296 78.8137Z" fill="#FFBE92"/>
<path d="M48.8573 78.8137C49.4398 78.8137 49.912 78.3415 49.912 77.759C49.912 77.1765 49.4398 76.7043 48.8573 76.7043C48.2748 76.7043 47.8026 77.1765 47.8026 77.759C47.8026 78.3415 48.2748 78.8137 48.8573 78.8137Z" fill="#FFBE92"/>
<path d="M91.1914 34.7465H57.8631C57.2807 34.7465 56.8084 34.2742 56.8084 33.6918V31.4607C56.8084 30.8783 57.2807 30.406 57.8631 30.406H91.1914C91.7738 30.406 92.2461 30.8783 92.2461 31.4607V33.6918C92.2461 34.2742 91.7738 34.7465 91.1914 34.7465Z" fill="#E2CCFF"/>
<path d="M112.189 48.3441H109.437V46.9126C109.437 45.168 108.018 43.7486 106.273 43.7486H96.3878L97.2641 41.1718H109.016C110.76 41.1718 112.18 39.7524 112.18 38.0077V27.8827C112.18 26.138 110.76 24.7186 109.016 24.7186H38.9844C37.2397 24.7186 35.8203 26.138 35.8203 27.8827V38.0077C35.8203 39.7524 37.2397 41.1718 38.9844 41.1718H58.7492C59.3316 41.1718 59.8039 40.6995 59.8039 40.1171C59.8039 39.5347 59.3316 39.0624 58.7492 39.0624H38.9844C38.4028 39.0624 37.9297 38.5892 37.9297 38.0077V27.8827C37.9297 27.3011 38.4028 26.828 38.9844 26.828H109.016C109.597 26.828 110.07 27.3011 110.07 27.8827V38.0077C110.07 38.5892 109.597 39.0624 109.016 39.0624H96.5087C96.0571 39.0624 95.6555 39.3499 95.5103 39.7775L93.7357 44.9963C93.5708 45.481 93.1356 45.5188 93.0063 45.5188H93.0061C92.8768 45.5188 92.4416 45.481 92.2769 44.9963L90.5023 39.7775C90.3571 39.3499 89.9553 39.0624 89.5039 39.0624H65.2039C64.6215 39.0624 64.1492 39.5347 64.1492 40.1171C64.1492 40.6995 64.6215 41.1718 65.2039 41.1718H88.7483L89.6246 43.7486H79.2734C77.0742 43.7486 75.1344 44.8769 73.9998 46.5842C72.8652 44.8769 70.9254 43.7488 68.7263 43.7488H41.7266C39.9819 43.7488 38.5625 45.1682 38.5625 46.9128V48.3443H35.811C33.4848 48.3443 31.5923 50.2368 31.5923 52.563V95.5825C31.5923 97.9087 33.4848 99.8012 35.811 99.8012H61.3739V103.703C61.3739 104.487 61.8044 105.201 62.4972 105.568C63.1905 105.934 64.0231 105.888 64.6709 105.446L66.8853 103.938L69.0997 105.446C69.4572 105.69 69.8711 105.813 70.2869 105.813C70.6244 105.813 70.9629 105.732 71.2734 105.568C71.9664 105.201 72.3967 104.487 72.3967 103.703V99.8012H112.189C114.515 99.8012 116.408 97.9087 116.408 95.5825V52.5628C116.408 50.2368 114.515 48.3441 112.189 48.3441ZM40.6719 46.9128C40.6719 46.3313 41.145 45.8582 41.7266 45.8582H68.7263C71.0526 45.8582 72.9451 47.7507 72.9451 50.0769V90.0323C72.9451 90.6138 72.472 91.087 71.8904 91.087H41.7266C41.145 91.087 40.6719 90.6138 40.6719 90.0323V46.9128ZM35.811 97.6918C34.6479 97.6918 33.7017 96.7456 33.7017 95.5825V52.5628C33.7017 51.3997 34.6479 50.4534 35.811 50.4534H38.5625V90.0321C38.5625 91.7767 39.9819 93.1961 41.7266 93.1961H61.3739V97.6916H35.811V97.6918ZM70.2871 103.703L67.4789 101.79C67.1207 101.546 66.6495 101.546 66.2913 101.79L63.4831 103.703V93.1963H70.2879L70.2926 103.706C70.2928 103.706 70.2909 103.705 70.2871 103.703ZM114.298 95.5825C114.298 96.7456 113.352 97.6918 112.189 97.6918H72.3965V93.152C73.0071 93.0531 73.5587 92.7802 74 92.384C74.5605 92.8873 75.2985 93.1965 76.1096 93.1965H106.273C108.018 93.1965 109.437 91.7772 109.437 90.0325V55.8541C109.437 55.2717 108.965 54.7994 108.383 54.7994C107.8 54.7994 107.328 55.2717 107.328 55.8541V90.0321C107.328 90.6136 106.855 91.0868 106.273 91.0868H76.1094C75.5278 91.0868 75.0547 90.6136 75.0547 90.0321V50.0767C75.0547 47.7505 76.9472 45.8579 79.2734 45.8579H90.3498C90.797 46.9392 91.8189 47.6279 93.0061 47.6281H93.0063C94.1935 47.6281 95.2155 46.9392 95.6626 45.8579H106.273C106.855 45.8579 107.328 46.3311 107.328 46.9126V49.3994C107.328 49.905 107.687 50.3391 108.183 50.4349C108.259 50.4494 108.335 50.4551 108.41 50.4536H112.189C113.352 50.4536 114.298 51.3999 114.298 52.563V95.5825Z" fill="#590BB2"/>
<path d="M41.5591 36.0968C41.7652 36.3027 42.0349 36.4056 42.3049 36.4056C42.5749 36.4056 42.8447 36.3027 43.0508 36.0968L44.4592 34.6884C44.844 34.8603 45.257 34.9493 45.6711 34.9493C46.4307 34.9493 47.19 34.6601 47.7682 34.0821C48.9246 32.9258 48.9246 31.0442 47.7682 29.8879C46.6119 28.7317 44.7305 28.7317 43.5739 29.8879C42.6806 30.7812 42.4804 32.1065 42.9677 33.1968L41.5593 34.6053C41.1471 35.0172 41.1471 35.6851 41.5591 36.0968ZM45.0653 31.3796C45.2323 31.2126 45.4515 31.129 45.6709 31.129C45.8902 31.129 46.1094 31.2126 46.2765 31.3796C46.6104 31.7135 46.6104 32.2567 46.2765 32.5906C45.9426 32.9245 45.3994 32.9245 45.0655 32.5906C44.7316 32.2567 44.7314 31.7135 45.0653 31.3796Z" fill="#590BB2"/>
<path d="M91.4253 50.0637C85.4478 50.0637 80.5846 54.9267 80.5846 60.9042C80.5846 66.8818 85.4478 71.7447 91.4253 71.7447C97.4029 71.7447 102.266 66.8818 102.266 60.9042C102.266 54.9267 97.4029 50.0637 91.4253 50.0637ZM100.156 60.9042C100.156 62.2082 99.8671 63.4452 99.3524 64.5574C98.5595 64.1522 97.6275 63.8152 96.6034 63.554C96.7079 62.6799 96.7621 61.7876 96.7621 60.904C96.7621 60.0208 96.7081 59.1288 96.6036 58.2548C97.6275 57.9939 98.559 57.6566 99.3526 57.2508C99.8671 58.3635 100.156 59.6004 100.156 60.9042ZM91.4253 69.6353C90.7567 69.6353 89.9667 68.7792 89.3636 67.4011C89.0803 66.7539 88.8454 66.0228 88.6621 65.231C89.5463 65.1101 90.4784 65.0453 91.4255 65.0453C92.3777 65.0453 93.3063 65.1076 94.1842 65.2257C93.5343 68.0016 92.3372 69.6353 91.4253 69.6353ZM91.4253 62.936C90.3569 62.936 89.3109 63.0102 88.3157 63.1492C88.2379 62.4253 88.1978 61.6727 88.1978 60.9042C88.1978 60.1113 88.241 59.3621 88.3174 58.6594C89.3134 58.7989 90.3595 58.8725 91.4253 58.8725C92.4933 58.8725 93.5391 58.7984 94.5348 58.6592C94.6126 59.3831 94.6527 60.1358 94.6527 60.9042C94.6527 61.6971 94.6094 62.4464 94.5331 63.149C93.5372 63.0098 92.4912 62.936 91.4253 62.936ZM82.6942 60.9042C82.6942 59.6002 82.9836 58.3633 83.4983 57.251C84.2912 57.6562 85.2231 57.9933 86.2472 58.2544C86.1428 59.1285 86.0886 60.0208 86.0886 60.9044C86.0886 61.7876 86.1426 62.6795 86.247 63.5532C85.2231 63.8143 84.2923 64.152 83.4985 64.5581C82.9836 63.4456 82.6942 62.2084 82.6942 60.9042ZM91.4253 52.1731C92.094 52.1731 92.8838 53.0293 93.4868 54.4073C93.7701 55.0545 94.0051 55.7856 94.1884 56.5773C93.304 56.6983 92.3718 56.7631 91.4253 56.7631C90.4732 56.7631 89.5444 56.7009 88.6667 56.5827C89.3164 53.807 90.5137 52.1731 91.4253 52.1731ZM98.2361 55.4502C97.6583 55.7306 96.9876 55.9738 96.2465 56.171C95.9822 55.0087 95.6175 53.9304 95.1562 53.0124C96.3594 53.5834 97.4111 54.4219 98.2361 55.4502ZM87.6943 53.0124C87.2323 53.9319 86.8672 55.0123 86.6027 56.1765C85.864 55.9795 85.193 55.7363 84.6127 55.4523C85.4381 54.4232 86.4902 53.5838 87.6943 53.0124ZM84.6146 66.3584C85.1923 66.0779 85.8631 65.8347 86.6039 65.6377C86.8682 66.7999 87.233 67.8782 87.6943 68.7962C86.4913 68.225 85.4398 67.3868 84.6146 66.3584ZM95.1564 68.7962C95.6184 67.8768 95.9835 66.7963 96.2478 65.6322C96.9865 65.8292 97.6575 66.0724 98.2378 66.3563C97.4126 67.3855 96.3602 68.2248 95.1564 68.7962Z" fill="#590BB2"/>
<path d="M104.461 85.2588C104.461 85.841 103.989 86.3135 103.406 86.3135H79.5114C78.9292 86.3135 78.4567 85.841 78.4567 85.2588C78.4567 84.6766 78.9292 84.2041 79.5114 84.2041H103.406C103.989 84.2041 104.461 84.6766 104.461 85.2588Z" fill="#D6B0FF"/>
<path d="M104.461 81.5667C104.461 82.1488 103.989 82.6213 103.406 82.6213H79.5114C78.9292 82.6213 78.4567 82.1488 78.4567 81.5667C78.4567 80.9845 78.9292 80.512 79.5114 80.512H103.406C103.989 80.512 104.461 80.9845 104.461 81.5667Z" fill="#D6B0FF"/>
<path d="M104.461 77.8748C104.461 78.4569 103.989 78.9294 103.406 78.9294H79.5114C78.9292 78.9294 78.4567 78.4569 78.4567 77.8748C78.4567 77.2926 78.9292 76.8201 79.5114 76.8201H103.406C103.989 76.8201 104.461 77.2926 104.461 77.8748Z" fill="#D6B0FF"/>
<path d="M118.727 33.8833C118.457 33.8833 118.187 33.7804 117.982 33.5745L117.04 32.6329L116.098 33.5745C115.686 33.9863 115.018 33.9863 114.607 33.5745C114.195 33.1626 114.195 32.4947 114.607 32.083L116.294 30.3955C116.706 29.9837 117.374 29.9837 117.785 30.3955L119.473 32.083C119.885 32.4949 119.885 33.1628 119.473 33.5745C119.267 33.7804 118.997 33.8833 118.727 33.8833Z" fill="#C182F9"/>
<path d="M88.8308 109.375C88.561 109.375 88.2908 109.272 88.0852 109.066L87.1433 108.125L86.2015 109.066C85.7899 109.478 85.1217 109.478 84.7102 109.066C84.2982 108.654 84.2982 107.986 84.7102 107.575L86.3977 105.887C86.8092 105.475 87.4774 105.475 87.889 105.887L89.5765 107.575C89.9884 107.987 89.9884 108.654 89.5765 109.066C89.3706 109.272 89.1006 109.375 88.8308 109.375Z" fill="#C182F9"/>
<path d="M33.2891 42.5536H32.6562V41.9208C32.6562 41.3384 32.184 40.8661 31.6016 40.8661C31.0192 40.8661 30.5469 41.3384 30.5469 41.9208V42.5536H29.9141C29.3317 42.5536 28.8594 43.0259 28.8594 43.6083C28.8594 44.1907 29.3317 44.663 29.9141 44.663H30.5469V45.2958C30.5469 45.8782 31.0192 46.3505 31.6016 46.3505C32.184 46.3505 32.6562 45.8782 32.6562 45.2958V44.663H33.2891C33.8715 44.663 34.3437 44.1907 34.3437 43.6083C34.3437 43.0259 33.8715 42.5536 33.2891 42.5536Z" fill="#FFE052"/>
<path d="M56.0098 109.4H55.377V108.767C55.377 108.184 54.9047 107.712 54.3223 107.712C53.7399 107.712 53.2676 108.184 53.2676 108.767V109.4H52.6348C52.0524 109.4 51.5801 109.872 51.5801 110.454C51.5801 111.037 52.0524 111.509 52.6348 111.509H53.2676V112.142C53.2676 112.724 53.7399 113.197 54.3223 113.197C54.9047 113.197 55.377 112.724 55.377 112.142V111.509H56.0098C56.5922 111.509 57.0645 111.037 57.0645 110.454C57.0645 109.872 56.5922 109.4 56.0098 109.4Z" fill="#FDD250"/>
<path d="M63.9864 114.545H63.3536V113.912C63.3536 113.329 62.8813 112.857 62.2989 112.857C61.7165 112.857 61.2442 113.329 61.2442 113.912V114.545H60.6114C60.029 114.545 59.5567 115.017 59.5567 115.599C59.5567 116.182 60.029 116.654 60.6114 116.654H61.2442V117.287C61.2442 117.869 61.7165 118.342 62.2989 118.342C62.8813 118.342 63.3536 117.869 63.3536 117.287V116.654H63.9864C64.5688 116.654 65.0411 116.182 65.0411 115.599C65.0411 115.017 64.5688 114.545 63.9864 114.545Z" fill="#C182F9"/>
</g>
<defs>
<linearGradient id="paint0_linear" x1="-2.57417e-06" y1="70" x2="691" y2="70" gradientUnits="userSpaceOnUse">
<stop offset="0.546875" stop-color="#41237E"/>
<stop offset="1" stop-color="#92125F"/>
</linearGradient>
<linearGradient id="paint1_linear" x1="749.176" y1="19.2936" x2="484.645" y2="113.914" gradientUnits="userSpaceOnUse">
<stop stop-color="#FFA052"/>
<stop offset="1" stop-color="white" stop-opacity="0"/>
</linearGradient>
<linearGradient id="paint2_linear" x1="83.6837" y1="4.40393" x2="60.9001" y2="153.13" gradientUnits="userSpaceOnUse">
<stop stop-color="#EA72BA" stop-opacity="0.8"/>
<stop offset="1" stop-color="#50385F"/>
</linearGradient>
<clipPath id="clip0">
<rect width="100" height="100" fill="white" transform="translate(571 20)"/>
</clipPath>
<clipPath id="clip1">
<rect width="108" height="108" fill="white" transform="translate(20 16)"/>
</clipPath>
</defs>
</svg>
