<svg width="632" height="479" viewBox="0 0 632 479" fill="none" xmlns="http://www.w3.org/2000/svg">
<path d="M11.7827 465.589H600.402C608.04 450.674 611.657 433.531 609.13 415.829C608.032 408.138 605.824 400.505 603.615 392.868C602.097 387.619 600.577 382.367 599.417 377.091C595.552 359.522 595.6 341.604 595.648 323.816C595.723 295.956 595.797 268.415 580.83 243.029C572.537 228.962 560.177 216.753 547.954 204.679C530.326 187.267 512.984 170.137 508.538 148.124C506.671 138.884 507.423 129.825 508.175 120.764L508.177 120.748C508.468 117.24 508.759 113.732 508.897 110.214C509.89 85.1241 501.7 56.7491 480.573 38.4966C457.42 18.4942 425.435 15.4815 396.688 15.064C395.349 15.044 394.009 15.0279 392.669 15.0167C391.324 15.0054 389.979 14.9991 388.635 14.9991C373.745 14.9991 358.93 15.8043 345.23 19.6993C322.865 26.0577 305.273 40.001 287.616 53.9962C278.254 61.4161 268.874 68.8506 258.755 75.1768C238.647 87.7442 215.306 96.004 190.507 99.3214C187.429 99.7335 184.314 100.074 181.197 100.415H181.192C170.068 101.632 158.91 102.854 149.27 107.336C128.129 117.169 118.716 140.437 113.13 162.954C112.217 166.638 111.357 170.367 110.495 174.105L110.494 174.112C106.09 193.215 101.637 212.538 89.6185 227.204C81.4215 237.208 70.3129 244.267 59.1731 251.346L59.1654 251.35C51.514 256.212 43.8484 261.084 37.1014 266.926C11.4441 289.147 0.65099 324.359 0.0270881 359.901C-0.329601 380.222 2.89708 400.626 6.12133 421.016C8.47411 435.894 10.8256 450.765 11.7827 465.589Z" fill="#E1DDFA"/>
<path d="M12 465C12 472.732 143.628 478.999 306.001 478.999C468.372 478.999 600 472.732 600 465C600 457.268 468.372 450.999 306.001 450.999C143.628 450.999 12 457.268 12 465" fill="#CFCAE9"/>
<path d="M425.905 414.19C425.785 413.674 422.967 401.329 424.375 382.769C424.378 382.72 424.383 382.665 424.388 382.616C421.041 380.498 405.81 370.162 410.974 360.44C411.952 358.599 413.681 357.479 415.485 357.479C416.12 357.479 416.766 357.619 417.391 357.912C417.518 357.972 417.645 358.037 417.772 358.109C420.849 359.833 423.131 365.119 423.45 369.145C423.649 371.699 424.232 376.589 424.632 379.827C425.355 372.479 426.825 363.782 429.63 354.332C426.291 350.975 415.68 339.293 420.25 330.657C421.057 329.13 422.402 328.114 423.968 327.893C424.232 327.857 424.51 327.834 424.798 327.834C426.503 327.834 428.536 328.614 429.91 331.697C432.363 337.188 429.345 346.627 430.068 352.893C432.43 345.245 435.665 337.138 440.088 328.873C437.75 325.192 432.588 315.675 436.715 308.971C438.766 305.642 440.638 304.364 442.198 304.364C444.61 304.364 446.282 307.41 446.735 310.638C447.358 315.068 442.961 319.631 441.553 326.211C443.757 322.307 446.227 318.376 449.001 314.451C449.146 314.241 450.51 312.292 453.191 309.52C451.454 305.935 446.896 295.067 452.042 288.848C454.246 286.185 456.097 285.14 457.577 285.14C460.281 285.14 461.736 288.625 461.795 292.091C461.878 296.996 455.941 301.09 454.178 308.52C457.178 305.562 461.518 301.883 467.312 298.396C466.005 294.608 463.377 284.998 468.354 280.274C470.361 278.371 471.989 277.609 473.262 277.609C475.981 277.609 477.088 281.081 476.808 284.345C476.438 288.622 470.993 291.523 468.624 297.623C472.005 295.682 475.854 293.825 480.179 292.215C480.145 287.365 480.653 270.664 489.322 270.664C490.269 270.664 491.316 270.863 492.467 271.299C492.467 271.299 495.148 272.792 495.381 276.51C495.615 280.228 492.763 284.57 489.882 286.476C487.726 287.904 483.368 291.15 481.319 292.685L481.379 292.884C481.516 292.889 481.654 292.889 481.789 292.889C484.596 292.889 487.132 291.987 489.426 291.082C491.721 290.178 493.776 289.275 495.622 289.275C496.2 289.275 496.76 289.364 497.297 289.568C501.79 291.274 505.313 296.607 497.108 301.077C495.897 301.738 494.655 302.018 493.416 302.018C488.101 302.018 482.852 296.843 480.5 294.178C471.748 297.476 464.987 301.852 460.11 305.8C460.157 305.8 460.201 305.8 460.245 305.8C463.05 305.8 465.585 304.898 467.88 303.993C470.174 303.091 472.23 302.189 474.079 302.189C474.657 302.189 475.214 302.277 475.753 302.482C480.244 304.188 483.769 309.52 475.564 313.99C474.353 314.651 473.112 314.931 471.87 314.931C466.425 314.931 461.049 309.5 458.791 306.899C453.147 311.708 450.409 315.623 450.357 315.698C447.163 320.22 444.379 324.749 441.944 329.234C448.252 328.679 452.683 323.502 456.683 323.502C457.004 323.502 457.323 323.535 457.639 323.605C462.27 324.655 466.343 329.454 458.726 335.088C457.222 336.202 455.589 336.648 453.932 336.648C448.874 336.648 443.617 332.485 441.312 330.411C437.001 338.546 433.848 346.521 431.556 354.029C432.951 352.47 435.292 349.455 436.881 345.261C438.66 340.566 440.804 337.799 443.785 337.799C444.814 337.799 445.945 338.131 447.194 338.823C451.78 341.372 452.685 355.4 434.022 355.4C433.122 355.4 432.171 355.366 431.178 355.299C428.313 365.026 426.879 373.931 426.223 381.335C427.649 378.261 429.534 373.625 430.418 368.961C431.313 364.233 433.897 362.379 436.464 362.379C438.258 362.379 440.044 363.286 441.237 364.751C444.042 368.199 441.447 379.425 425.982 384.485C424.865 401.855 427.538 413.612 427.566 413.731L425.905 414.19" fill="#DA1C49"/>
<path d="M487.334 363.375L513.41 363.989C523.139 347.973 530.372 333.994 530.372 333.994C501.225 325.986 476.272 327.733 455.247 334.823L442.689 362.045L441.138 340.618C388.7 366.149 365.129 423.842 365.129 423.842C365.129 423.842 456.162 417.97 475.751 409.838C483.313 406.698 493.178 394.674 502.441 381.097C495.77 374.196 487.334 363.375 487.334 363.375Z" fill="#4E4BA8"/>
<path d="M530.372 333.994C530.372 333.994 411.97 378.103 365.129 423.842C365.129 423.842 456.162 417.97 475.751 409.838C483.313 406.698 493.178 394.674 502.441 381.097C495.77 374.196 487.334 363.375 487.334 363.375L513.41 363.989C523.139 347.973 530.372 333.994 530.372 333.994" fill="#453A9D"/>
<path d="M535.311 364.796C530.663 356.36 520.326 367.754 517.661 370.927C514.32 369.714 511.136 368.879 508.183 368.329C512.619 365.936 517.262 366.952 519.613 364.627C522.253 362.022 523.352 357.661 516.689 358.021C511.411 358.304 508.155 365.254 507.029 368.129C501.891 367.282 497.507 367.271 494.269 367.51C499.013 364.031 504.543 364.593 506.941 361.677C509.567 358.485 510.252 353.598 502.842 354.905C496.719 355.984 493.963 364.632 493.193 367.603C490.238 367.888 488.462 368.352 488.273 368.402C484.685 369.319 481.273 370.393 478.032 371.583C482.144 368.425 487.002 367.943 488.848 365.034C491.065 361.542 491.096 356.691 483.803 359.056C478.035 360.928 476.311 369.084 475.842 372.412C469.122 375.051 463.175 378.191 457.971 381.496C460.675 377.46 467.159 373.431 468.466 368.988C469.321 366.071 468.08 364.552 466.879 363.79C465.85 363.136 464.554 363.061 463.317 363.554C456.325 366.335 456.717 378.487 456.997 382.121C450.635 386.264 445.426 390.63 441.333 394.578C442.717 392.481 444.817 389.321 445.973 387.724C447.798 385.204 449.1 380.962 448.156 378.417C448.117 378.31 448.073 378.209 448.032 378.111C447.187 376.247 445.022 375.591 443.007 376.389C435.121 379.513 438.893 393.181 439.798 396.092C439.769 396.118 439.741 396.147 439.712 396.175C429.62 406.359 425.106 415.005 424.919 415.368L426.122 415.928C426.167 415.845 430.47 407.613 439.8 397.985C451.397 402.737 458.526 397.448 458.601 394.026C458.679 390.49 455.06 387.14 450.152 391.094C447.306 393.388 443.886 395.167 441.514 396.258C445.595 392.242 450.883 387.734 457.422 383.459C469.339 395.107 476.529 385.761 475.04 381.795C473.537 377.779 470.335 377.911 465.78 380.421C462.752 382.088 459.874 382.689 458.277 382.904C463.372 379.645 469.202 376.542 475.792 373.924C476.212 377.066 477.846 384.963 483.671 385.362C490.951 385.86 490.958 381.012 488.768 378.085C486.753 375.394 481.045 376.599 476.752 373.548C480.42 372.132 484.314 370.867 488.446 369.812C488.514 369.794 492.073 368.863 497.784 368.861C497.818 372.117 498.472 380.221 504.082 381.393C511.126 382.868 511.722 377.981 509.938 374.738C508.349 371.845 502.918 372.187 499.109 368.876C503.939 368.993 510.091 369.804 516.871 372.239C516.93 375.614 517.666 383.425 523.165 384.576C530.209 386.049 530.805 381.165 529.024 377.921C527.412 374.987 521.848 375.383 518.032 371.917L518.094 371.772C520.065 371.894 524.241 372.166 526.219 372.405C528.858 372.726 532.7 371.601 534.419 369.304C536.138 367.007 535.311 364.796 535.311 364.796" fill="#DA1C49"/>
<path d="M523.396 412.093C508.126 401.899 492.532 396.136 477.319 393.461C472.604 398.848 466.825 405.174 466.825 405.174L466.791 392.082C408.208 386.961 357.937 424.255 357.937 424.255C391.036 447.095 419.789 454.211 443.619 453.285C445.219 448.775 447.495 442.037 447.495 442.037L451.254 452.71C462.713 451.406 472.909 448.274 481.768 444.295C479.772 438.757 477.693 432.434 477.693 432.434L490.043 440.147C511.782 428.071 523.396 412.093 523.396 412.093Z" fill="#453A9D"/>
<path d="M443.619 453.285C445.219 448.775 447.495 442.037 447.495 442.037L451.254 452.71C462.713 451.406 472.909 448.274 481.768 444.295C479.772 438.757 477.693 432.434 477.693 432.434L490.043 440.147C511.782 428.071 523.396 412.093 523.396 412.093C455.34 401.342 357.937 424.255 357.937 424.255C391.036 447.095 419.789 454.211 443.619 453.285Z" fill="#4E4BA8"/>
<path d="M87.6789 173.805C98.1788 167.018 102.999 186.399 104.094 191.665C108.662 192.331 112.816 193.334 116.53 194.522C112.928 189.057 106.994 187.366 105.733 183.262C104.318 178.661 105.741 172.999 113.14 177.504C119.002 181.074 118.454 191.022 117.974 195.001C124.372 197.189 129.391 199.873 132.945 202.133C129.658 195.24 122.99 192.487 122.04 187.675C121 182.412 123.22 176.405 130.891 182.451C137.231 187.449 135.063 199.033 134.121 202.901C137.324 205.047 139.07 206.668 139.255 206.841C142.793 210.095 146.036 213.416 149.012 216.771C146.25 210.634 140.991 207.098 140.668 202.636C140.28 197.28 143.225 191.714 150.111 198.898C155.559 204.583 152.515 214.971 151.005 219.065C157.068 226.212 161.939 233.458 165.858 240.438C165.246 234.158 160.307 225.567 161.548 219.682C162.362 215.822 164.714 214.847 166.558 214.712C168.133 214.598 169.663 215.308 170.775 216.633C177.06 224.113 169.145 237.765 166.589 241.752C171.319 250.398 174.589 258.59 176.842 265.624C176.551 262.373 176.091 257.47 175.751 254.932C175.214 250.929 176.331 245.28 178.976 242.947C179.087 242.851 179.197 242.76 179.307 242.675C181.417 241.062 184.296 241.643 186.111 243.795C193.208 252.213 180.493 265.523 177.669 268.297C177.683 268.346 177.699 268.398 177.714 268.444C182.997 286.291 182.842 298.956 182.833 299.484L181.112 299.386C181.114 299.262 181.253 287.206 176.502 270.461C160.32 268.768 155.418 258.341 157.436 254.38C159.521 250.289 165.718 248.682 168.9 256.221C170.745 260.592 173.562 264.727 175.604 267.433C173.404 260.332 170.127 251.928 165.28 243.022C144.49 249.016 142.015 233.912 146.153 230.288C150.342 226.619 153.922 228.74 157.591 234.407C160.027 238.174 162.949 240.629 164.642 241.861C160.821 235.001 156.059 227.869 150.132 220.825C147.72 224.162 141.001 232.188 134.093 229.064C125.46 225.16 128.433 219.609 132.738 217.608C134.874 216.615 137.542 217.582 140.613 218.549C143.232 219.373 146.143 220.198 149.267 219.806C145.942 215.933 142.267 212.094 138.191 208.345C138.125 208.283 134.624 205.032 128.096 201.519C126.055 205.223 120.327 214.087 113.191 211.982C104.228 209.338 106.551 203.385 110.582 200.77C112.523 199.512 115.162 200.018 118.186 200.523C120.767 200.956 123.628 201.387 126.573 200.723C120.976 197.889 113.443 195.035 104.193 193.651C102.05 197.477 96.4045 205.957 89.4102 203.894C80.4476 201.249 82.7703 195.294 86.8019 192.681C88.7421 191.424 91.3815 191.929 94.4049 192.437C97.0651 192.883 100.022 193.329 103.063 192.572L103.078 192.367C100.752 191.294 95.809 189.041 93.399 188.097C90.1827 186.84 86.4799 183.195 85.9261 179.511C85.3726 175.83 87.6789 173.805 87.6789 173.805" fill="#DA1C49"/>
<path d="M194.708 138.679C187.477 138.459 190.891 149.498 191.926 152.433C189.862 154.128 188.107 155.865 186.623 157.566C186.771 153.783 189.204 151.17 188.6 148.762C187.923 146.06 185.524 143.683 183.21 148.127C181.376 151.647 184.623 156.407 186.052 158.235C183.539 161.232 181.857 164.06 180.775 166.243C180.339 161.849 182.816 158.491 181.847 155.824C180.787 152.907 177.89 150.6 175.902 155.886C174.259 160.257 178.798 165.343 180.423 166.977C179.478 168.996 179.099 170.321 179.06 170.461C178.282 173.131 177.67 175.747 177.2 178.296C176.732 174.433 178.277 171.109 177.102 168.802C175.692 166.036 172.568 164.161 171.309 169.777C170.313 174.223 174.929 178.454 176.901 180.027C176.038 185.381 175.794 190.423 175.943 195.051C174.367 191.761 174.24 186.029 171.866 183.488C170.308 181.821 168.852 182.042 167.899 182.527C167.085 182.941 166.54 183.75 166.386 184.738C165.512 190.32 173.516 194.711 175.974 195.922C176.219 201.615 177.052 206.65 178.041 210.806C177.213 209.11 175.973 206.544 175.382 205.185C174.45 203.044 172.207 200.581 170.2 200.218C170.116 200.202 170.034 200.192 169.954 200.182C168.427 200.016 167.175 201.164 166.921 202.771C165.926 209.063 176.204 211.848 178.432 212.377C178.439 212.405 178.446 212.434 178.454 212.462C181.178 222.879 185.044 229.101 185.207 229.36L186.029 228.798C185.991 228.735 182.315 222.809 179.657 213.097C187.161 207.42 186.467 200.791 184.284 199.435C182.027 198.032 178.479 199.093 179.159 203.775C179.554 206.489 179.396 209.38 179.195 211.329C178.16 207.158 177.267 202.017 177.002 196.158C189.087 192.907 185.793 184.689 182.66 184.134C179.49 183.571 178.351 185.689 178.231 189.594C178.152 192.186 177.44 194.276 176.97 195.393C176.81 190.854 177.033 185.899 177.859 180.639C180.051 181.567 185.78 183.532 188.265 179.918C191.368 175.405 188.237 173.546 185.508 173.844C182.998 174.116 181.597 178.267 177.983 179.874C178.47 176.963 179.14 173.963 180.037 170.889C180.05 170.837 180.811 168.182 182.992 164.49C185.11 165.712 190.598 168.387 193.502 165.211C197.147 161.221 194.215 158.968 191.438 158.88C188.96 158.803 187.104 162.442 183.507 163.64C185.43 160.563 188.304 156.897 192.47 153.444C194.676 154.696 200.007 157.206 202.853 154.092C206.498 150.102 203.566 147.849 200.79 147.761C198.275 147.683 196.406 151.429 192.706 152.573L192.639 152.474C193.468 151.248 195.242 148.653 196.152 147.465C197.367 145.881 198.112 142.97 197.282 140.982C196.455 138.991 194.708 138.679 194.708 138.679" fill="#DA1C49"/>
<path d="M195.189 353.915C192.944 350.859 190.144 347.248 186.816 343.31C153.873 284.983 78.1392 213.557 78.1392 213.557C108.106 217.516 130.414 228.832 147.024 243.542L148.002 273.504L157.036 255.799C156.654 259.447 159.988 265.56 168.599 268.7C171.027 272.42 173.24 276.21 175.249 280.016C175.327 298.031 175.48 312.861 175.632 313.835C175.754 314.613 182.736 321.203 192.169 329.803C194.079 339.96 194.865 348.44 195.189 353.915Z" fill="#4E4BA8"/>
<path d="M168.599 268.701C159.989 265.562 156.655 259.449 157.037 255.801L157.768 254.368C161.795 258.977 165.388 263.783 168.599 268.701Z" fill="#C8F4FC"/>
<path d="M186.816 343.31C172.245 326.078 147.472 302.574 114.113 291.802L108.987 303.847C108.987 303.847 106.125 295.774 103.877 288.976C99.4501 287.96 94.8891 287.18 90.1967 286.669C88.4384 280.963 86.8915 274.492 85.5442 267.814C94.3742 264.052 106.358 257.363 106.358 257.363L82.0961 247.786C79.3639 229.247 78.1392 213.558 78.1392 213.558C78.1392 213.558 153.873 284.984 186.816 343.31Z" fill="#453A9D"/>
<path d="M201.875 363.777C201.875 363.777 121.058 304.784 54.1812 288.218C62.2206 286.678 69.9784 285.975 77.4396 285.975C81.7935 285.975 86.0455 286.214 90.1966 286.668C94.889 287.178 99.45 287.959 103.877 288.975C106.125 295.773 108.987 303.846 108.987 303.846L114.113 291.801C147.472 302.573 172.245 326.076 186.815 343.309C190.144 347.247 192.944 350.858 195.189 353.915C199.599 359.916 201.875 363.777 201.875 363.777" fill="#4E4BA8"/>
<path d="M163.641 367.964C142.682 367.964 125.573 363.722 111.646 357.197C111.93 352.416 112.453 345.326 112.453 345.326L104.839 353.694C94.7877 348.035 86.6135 341.186 80.001 334.074C83.994 329.747 88.3709 324.734 88.3709 324.734L73.9929 327.033C58.6644 307.455 54.1812 288.218 54.1812 288.218C121.058 304.784 201.875 363.777 201.875 363.777C187.894 366.678 175.181 367.964 163.641 367.964Z" fill="#453A9D"/>
<path d="M392.508 319.669H387.144V71.5811H392.508V319.669Z" fill="#333333"/>
<path d="M423.505 39.2848H355.708L334.509 119.051H444.701L423.505 39.2848Z" fill="#FFB74D"/>
<path d="M299.3 143.37C299.3 143.37 320.392 143.367 317.429 169.531L315.155 171.234C315.155 171.234 314.041 168.452 313.045 165.865C312.05 163.277 305.288 157.302 305.288 157.302L299.3 143.37" fill="#FF5B7E"/>
<path d="M408.465 300.597C406.197 300.649 342.102 300.597 342.102 300.597V366.068L389.503 367.964C389.503 367.964 409.085 358.864 407.827 356.969C406.567 355.074 408.465 300.597 408.465 300.597Z" fill="#07085B"/>
<path d="M345.516 194.999L177.528 195.072L179.14 196.692C179.14 196.692 176.391 203.964 175.633 213.657C174.874 223.353 175.253 311.41 175.633 313.834C176.012 316.258 243.13 375.235 243.13 375.235L333.625 371.378C337.023 373.812 341.114 375.235 345.516 375.235C357.297 375.235 366.845 365.062 366.845 352.512V217.722C366.845 205.172 357.297 194.999 345.516 194.999Z" fill="#FEB546"/>
<path d="M191.83 351.746H166.452C161.679 351.746 157.81 347.875 157.81 343.102V203.644C157.81 198.871 161.679 195 166.452 195H191.83C196.603 195 200.471 198.871 200.471 203.644V343.102C200.471 347.875 196.603 351.746 191.83 351.746Z" fill="#F4A640"/>
<path d="M389.503 455.129H273.087V384.647H389.503V455.129Z" fill="#F4A640"/>
<path d="M408.465 300.598C419.716 300.929 429.031 310.268 429.687 321.898C430.203 331.078 425.438 339.156 418.246 343.192C415.773 344.579 414.176 347.195 414.176 350.107V446.641C414.176 451.331 410.505 455.129 405.976 455.129H394.128C389.599 455.129 385.925 451.331 385.925 446.641V323.253C385.925 310.516 396.078 300.235 408.465 300.598" fill="#FEB546"/>
<path d="M395.059 396.276H265.981C263.5 396.276 261.488 394.264 261.488 391.783V358.685C261.488 356.204 263.5 354.192 265.981 354.192H395.059C397.54 354.192 399.552 356.204 399.552 358.685V391.783C399.552 394.264 397.54 396.276 395.059 396.276" fill="#FEB546"/>
<path d="M385.925 354.192C387.175 354.135 388.409 354.026 389.682 354.091C390.945 354.179 392.197 354.496 393.371 355.004C394.543 355.52 395.632 356.24 396.575 357.125C397.514 358.016 398.289 359.079 398.883 360.238C399.469 361.397 399.883 362.66 400.031 363.961C400.169 365.291 400.127 366.507 400.156 367.759L400.192 375.233L400.158 382.71C400.13 383.96 400.169 385.178 400.031 386.508C399.883 387.809 399.471 389.072 398.883 390.231C398.292 391.39 397.514 392.453 396.578 393.344C395.634 394.231 394.543 394.949 393.374 395.468C392.197 395.973 390.945 396.29 389.682 396.378C388.409 396.442 387.175 396.334 385.925 396.277C387.167 396.196 388.432 396.186 389.646 396.041C390.862 395.862 392.031 395.463 393.101 394.9C395.264 393.803 396.998 391.96 397.986 389.795C398.473 388.714 398.808 387.561 398.919 386.381C399.012 385.23 398.95 383.949 398.945 382.71L398.911 375.233L398.948 367.759C398.95 366.52 399.012 365.239 398.919 364.088C398.808 362.908 398.476 361.752 397.986 360.671C397.001 358.509 395.264 356.663 393.104 355.566C392.031 355.004 390.862 354.605 389.646 354.426C388.432 354.281 387.167 354.273 385.925 354.192" fill="#DAEEF7"/>
<path d="M317.714 173.728C317.714 173.728 308.449 205.978 316.032 221.523C323.615 237.068 310.981 233.086 305.828 226.83C300.674 220.574 292.077 215.457 291.258 209.579C290.436 203.702 287.607 200.29 289.876 196.5C292.142 192.707 294.418 189.583 298.019 186.312C301.622 183.04 305.973 179.677 310.383 177.329C314.795 174.977 317.714 173.728 317.714 173.728" fill="#373365"/>
<path d="M396.5 442.208L396.376 453.335C396.365 454.256 397.102 455.007 398.019 455.018L424.079 455.316C425.964 455.337 426.711 452.881 425.132 451.85L411.661 442.379C411.661 442.379 408.675 439.958 396.5 442.208" fill="#DA1C49"/>
<path d="M367.752 434.101L363.944 444.56C363.63 445.423 364.073 446.377 364.939 446.691L389.426 455.609C391.199 456.254 392.715 454.186 391.567 452.69L381.355 439.056C381.355 439.056 374.195 440.907 367.752 434.101" fill="#EF2955"/>
<path d="M293.757 157.211L291.226 173.069L285.886 151.927C285.886 151.927 293.373 148.293 293.702 149.615C294.034 150.935 293.757 157.211 293.757 157.211Z" fill="#07085B"/>
<path d="M275.184 191.341L272.872 218.754L297.065 217.598L294.275 193.322L275.184 191.341Z" fill="#FFC3AD"/>
<path d="M295.603 204.869L294.275 193.322L275.184 191.341L274.383 200.835C278.178 204.618 285.005 208.538 295.603 204.869" fill="#F99893"/>
<path d="M288.507 319.932C288.507 319.932 281.824 351.39 314.894 357.35C347.964 363.313 390.745 364.3 390.745 364.3L396.472 442.91L413.735 443.792C413.735 443.792 458.189 334.57 396.659 317.495L341.363 317.765L318.593 316.139C318.593 316.139 295.553 310.449 295.284 311.533C295.012 312.616 289.049 320.477 288.507 319.932" fill="#322E5C"/>
<path d="M248.668 325.348C248.668 325.348 246.104 359.844 279.516 363.406C312.928 366.97 353.841 362.231 353.841 362.231L365.217 440.224L382.501 439.856C382.501 439.856 418.965 327.715 356.363 315.12L301.231 319.374L278.404 319.395C278.404 319.395 255.014 315.377 254.82 316.479C254.628 317.58 249.249 325.848 248.668 325.348" fill="#373365"/>
<path d="M299.769 207.82C299.769 207.82 322.536 210.711 328.32 215.411C334.101 220.109 361.932 289.129 361.932 289.129L338.802 316.231L289.648 316.591C289.648 316.591 252.785 336.466 229.655 317.675C206.524 298.885 218.45 233.478 231.822 219.385C245.194 205.292 269.048 205.653 269.048 205.653C269.048 205.653 290.734 220.829 299.769 207.82" fill="#E91E63"/>
<path d="M261.667 144.341C261.667 144.341 222.328 172.193 252.137 215.078C268.871 239.152 276.862 228.346 286.529 260.387C286.529 260.387 299.772 242.152 291.486 225.694C286.456 215.698 274.928 199.492 276.862 192.329C278.798 185.163 264.84 153.086 264.84 153.086L261.667 144.341Z" fill="#373365"/>
<path d="M255.676 242.151C256.49 245.913 256.987 249.732 257.342 253.564C257.54 255.477 257.625 257.4 257.734 259.324C257.794 261.248 257.838 263.174 257.812 265.103C257.737 268.955 257.524 272.821 256.86 276.637C256.215 280.437 255.274 284.251 253.508 287.684C254.696 284.02 255.284 280.256 255.712 276.479C256.132 272.701 256.277 268.89 256.326 265.082C256.404 261.271 256.311 257.455 256.189 253.634C256.054 249.815 255.88 245.991 255.676 242.151" fill="white"/>
<path d="M335.245 300.611C335.1 299.465 326.412 298.19 323.221 298.024C320.802 297.9 304.765 297.363 299.31 297.117L299.712 298.519L299.629 304.713L298.732 308.817C303.518 309.12 315.218 309.576 317.652 310.058C320.906 310.701 326.552 313.154 326.552 313.154C326.552 313.154 328.898 312.622 325.914 311.334C323.521 310.302 321.839 308.7 321.129 307.904C320.719 307.448 321.162 306.631 321.46 306.709C329.583 308.837 330.417 309.19 330.417 309.19C330.417 309.19 339.963 309.135 330.472 306.991C324.781 305.706 322.744 304.959 322.236 304.319C322.02 304.049 322.407 303.123 322.751 303.103C327.682 302.797 336.528 304.544 334.104 303.398C332.129 302.465 325.904 301.441 323.485 301.055C323.337 301.031 323.096 300.129 323.757 300.075C328.452 299.683 335.38 301.672 335.245 300.611" fill="#FFC0BB"/>
<path d="M250.12 286.734C252.119 287.221 254.089 287.778 256.098 288.198C258.089 288.673 260.111 289.02 262.113 289.44C266.141 290.176 270.183 290.817 274.238 291.385C278.295 291.916 282.36 292.409 286.436 292.8C290.493 293.204 294.62 293.549 298.639 293.772L299.18 293.803L299.297 294.273C299.642 295.634 299.867 296.964 300.039 298.325C300.21 299.681 300.28 301.049 300.28 302.418C300.267 303.787 300.15 305.159 299.924 306.514C299.676 307.868 299.274 309.195 298.735 310.468L298.688 310.577L298.6 310.636L294.135 313.631C292.65 314.629 291.157 315.619 289.648 316.591C291.048 315.472 292.461 314.37 293.881 313.276L298.136 309.991L298.001 310.159C298.449 308.931 298.763 307.66 298.937 306.359C299.095 305.06 299.167 303.746 299.129 302.429C299.085 301.114 298.955 299.8 298.771 298.496C298.579 297.197 298.322 295.88 297.98 294.646L298.639 295.144C296.515 295.087 294.506 294.952 292.44 294.801C290.387 294.648 288.336 294.485 286.288 294.27C282.194 293.847 278.109 293.337 274.043 292.689C269.981 292.033 265.937 291.239 261.931 290.293C259.935 289.782 257.936 289.292 255.974 288.673C253.993 288.115 252.054 287.421 250.12 286.734" fill="white"/>
<path d="M438.066 254.617H349.159L323.949 316.14H281.121C279.923 316.14 278.954 317.11 278.954 318.307C278.954 319.505 279.923 320.477 281.121 320.477H408.519L438.066 254.617Z" fill="#4E4BA8"/>
<path d="M390.207 293.751C389.527 297.135 386.579 299.4 383.618 298.805C380.653 298.212 378.802 294.99 379.478 291.603C380.157 288.22 383.106 285.957 386.071 286.55C389.032 287.142 390.883 290.365 390.207 293.751" fill="#DAEEF7"/>
<path d="M363.718 363.155C362.764 363.113 361.81 363.082 360.861 362.991C359.912 362.903 358.969 362.776 358.033 362.631C357.564 362.551 357.089 362.46 356.623 362.356C357.076 362.195 357.509 361.998 357.937 361.778C358.782 361.342 359.552 360.777 360.262 360.16C360.939 359.502 361.572 358.804 362.101 358.037C362.635 357.27 363.07 356.445 363.436 355.6L362.648 356.73C362.357 357.086 362.095 357.459 361.787 357.793C361.211 358.496 360.545 359.113 359.853 359.683C359.155 360.246 358.398 360.728 357.608 361.132C356.822 361.524 355.956 361.848 355.137 361.991L353.633 362.252L355.057 362.693C356.026 362.991 356.97 363.147 357.937 363.279C358.899 363.414 359.866 363.468 360.83 363.502C361.795 363.525 362.762 363.531 363.723 363.471C364.683 363.411 365.642 363.328 366.593 363.196C365.631 363.186 364.675 363.199 363.718 363.155" fill="#DAEEF7"/>
<path d="M257.85 300.597H152.701C152.298 300.587 151.892 300.587 151.483 300.597C140.231 300.929 130.916 310.267 130.261 321.9C129.744 331.08 134.509 339.161 141.701 343.195C144.174 344.582 145.77 347.197 145.77 350.109V446.656C145.77 451.344 149.442 455.144 153.971 455.144H159.326H165.82H265.125L257.85 300.597Z" fill="#F4A640"/>
<path d="M257.851 300.597C246.596 300.929 237.282 310.267 236.628 321.9C236.11 331.08 240.875 339.161 248.069 343.195C250.54 344.582 252.137 347.197 252.137 350.109V446.656C252.137 451.344 255.808 455.144 260.337 455.144H272.187C276.716 455.144 280.387 451.344 280.387 446.656V323.256C280.387 310.519 270.235 300.234 257.851 300.597" fill="#FEB546"/>
<path d="M325.873 235.654C327.045 238.721 328.11 241.799 329.062 244.902C329.995 248.008 330.822 251.139 331.372 254.313C331.677 255.894 331.874 257.488 332.009 259.085C332.173 260.685 332.188 262.287 332.129 263.884C332.012 267.086 327.268 282.141 325.873 285.119C327.843 282.475 333.005 267.293 333.355 263.983C333.754 260.659 333.482 257.299 332.919 254.035C332.611 252.405 332.245 250.789 331.794 249.198C331.322 247.614 330.822 246.04 330.218 244.505C329.033 241.43 327.631 238.436 325.873 235.654" fill="white"/>
<path d="M257.161 164.833C257.161 164.833 255.071 139.424 272.872 130.246C291.255 120.765 312.76 129.359 318.59 147.922C324.421 166.484 315.746 175.812 315.746 175.812C315.746 175.812 298.903 180.551 291.255 179.327C283.61 178.106 268.252 169.453 265.265 168.351C262.279 167.249 257.161 164.833 257.161 164.833" fill="#373365"/>
<path d="M310.437 172.869C308.983 175.877 309.755 179.26 312.161 180.424C314.57 181.588 317.699 180.092 319.153 177.082C320.61 174.075 319.838 170.694 317.429 169.53C315.023 168.366 311.891 169.862 310.437 172.869Z" fill="#F99893"/>
<path d="M308.405 190.88C309.26 189.597 309.999 188.225 310.613 186.778C312.343 182.9 313.359 178.729 313.95 175.073C314.074 174.288 314.248 173.513 314.435 172.74C315.187 169.621 315.386 166.277 314.865 162.79C313.183 151.572 304.158 142.631 292.919 141.078C277.782 138.986 264.446 150.19 263.502 165.035C261.947 164.034 260.148 163.713 258.507 164.325C255.357 165.499 253.993 169.639 255.46 173.575C256.928 177.51 260.669 179.748 263.819 178.576C264.254 178.412 264.653 178.187 265.019 177.917C265.504 190.631 275.236 201.035 287.664 201.618C293.741 201.901 299.393 199.785 303.782 196.075C304.075 195.86 304.384 195.606 304.708 195.31C306.136 194.012 307.355 192.505 308.405 190.88" fill="#FFC3AD"/>
<path d="M295.102 166.785C295.152 168.266 295.165 169.712 295.24 171.128C295.333 172.512 295.483 173.992 296.038 174.967L296.15 175.123C296.191 175.182 296.202 175.213 296.287 175.317C296.419 175.504 296.577 175.659 296.679 175.874C296.902 176.279 297.057 176.748 297.065 177.233C297.099 178.213 296.58 179.089 295.935 179.626C294.615 180.735 292.904 180.842 291.486 180.492C292.932 180.238 294.317 179.74 295.123 178.796C295.499 178.327 295.745 177.803 295.66 177.311C295.631 177.07 295.548 176.831 295.406 176.611C295.359 176.492 295.24 176.393 295.167 176.282L294.98 176.035L294.776 175.75C294.312 174.959 294.164 174.158 294.076 173.386C294.003 172.608 294.013 171.854 294.086 171.107C294.229 169.619 294.545 168.164 295.102 166.785" fill="#F99893"/>
<path d="M286.526 168.742C286.469 169.987 285.412 170.949 284.167 170.889C282.923 170.832 281.961 169.777 282.018 168.53C282.078 167.285 283.133 166.324 284.377 166.383C285.624 166.44 286.586 167.498 286.526 168.742Z" fill="#333333"/>
<path d="M305.825 170.917C305.768 172.162 304.71 173.123 303.466 173.066C302.221 173.007 301.259 171.952 301.317 170.707C301.376 169.46 302.431 168.501 303.676 168.558C304.923 168.618 305.885 169.673 305.825 170.917Z" fill="#333333"/>
<path d="M289.36 163.646C288.211 163.29 287.13 163.021 286.06 162.855C284.992 162.691 283.944 162.663 282.925 162.785C281.912 162.922 280.893 163.14 279.91 163.586C279.392 163.747 278.936 164.055 278.409 164.275C277.901 164.53 277.432 164.851 276.862 165.1C277.147 164.576 277.479 164.063 277.865 163.594C278.29 163.168 278.697 162.689 279.228 162.365C280.221 161.61 281.468 161.177 282.726 161.022C283.991 160.869 285.285 161.053 286.433 161.514C287.576 161.984 288.621 162.681 289.36 163.646" fill="#FF5B7E"/>
<path d="M299.3 164.766C300.212 163.962 301.374 163.48 302.584 163.241C303.8 163.013 305.107 163.083 306.318 163.477C307.52 163.876 308.661 164.543 309.488 165.476C309.947 165.896 310.253 166.448 310.587 166.946C310.875 167.483 311.101 168.048 311.277 168.618C310.769 168.263 310.37 167.856 309.921 167.508C309.447 167.192 309.06 166.801 308.581 166.539C307.707 165.911 306.748 165.502 305.778 165.17C304.804 164.851 303.772 164.675 302.691 164.631C301.61 164.584 300.497 164.641 299.3 164.766" fill="#FF5B7E"/>
<path d="M264.127 165.865C264.127 165.865 265.12 159.438 272.872 154.888C280.623 150.338 292.531 161.862 309.257 150.271C309.257 150.271 306.929 140.243 287.592 138.394C268.252 136.546 258.714 153.431 258.506 164.325C258.506 164.325 261.094 163.205 264.127 165.865" fill="#373365"/>
<path d="M309.257 150.271C309.257 150.271 310.432 149.646 309.895 144.118C309.895 144.118 311.15 146.784 310.144 151.401C308.609 158.445 309.257 150.271 309.257 150.271Z" fill="#FFC0BB"/>
<path d="M242.503 172.063C242.503 172.063 242.879 139.67 275.926 128.852L251.898 158.868L246.068 176.072L242.503 172.063" fill="#373365"/>
<path d="M473.726 234.965H441.74C428.29 234.965 417.386 224.061 417.386 210.608V197.148C417.386 183.698 428.29 172.794 441.74 172.794H473.726C487.176 172.794 498.08 183.698 498.08 197.148V210.608C498.08 224.061 487.176 234.965 473.726 234.965Z" fill="#4E4BA8"/>
<path d="M421.137 233.086C421.137 235.577 419.115 237.596 416.623 237.596C414.132 237.596 412.112 235.577 412.112 233.086C412.112 230.592 414.132 228.572 416.623 228.572C419.115 228.572 421.137 230.592 421.137 233.086Z" fill="#E91E63"/>
<path d="M407.884 242.566C407.884 244.332 406.453 245.763 404.687 245.763C402.922 245.763 401.491 244.332 401.491 242.566C401.491 240.801 402.922 239.37 404.687 239.37C406.453 239.37 407.884 240.801 407.884 242.566Z" fill="#E91E63"/>
<path d="M482.603 192.593H431.44C431.17 192.593 430.95 192.375 430.95 192.106V189.897C430.95 189.627 431.17 189.41 431.44 189.41H482.603C482.872 189.41 483.093 189.627 483.093 189.897V192.106C483.093 192.375 482.872 192.593 482.603 192.593Z" fill="white"/>
<path d="M487.492 205.729H431.44C431.17 205.729 430.95 205.509 430.95 205.239V203.031C430.95 202.761 431.17 202.543 431.44 202.543H487.492C487.762 202.543 487.98 202.761 487.98 203.031V205.239C487.98 205.509 487.762 205.729 487.492 205.729Z" fill="white"/>
<path d="M477.589 218.35H431.437C431.17 218.35 430.95 218.132 430.95 217.863V215.654C430.95 215.384 431.17 215.164 431.437 215.164H477.589C477.859 215.164 478.079 215.384 478.079 215.654V217.863C478.079 218.132 477.859 218.35 477.589 218.35Z" fill="white"/>
<path d="M292.925 190.18C292.792 190.18 292.658 190.177 292.518 190.167C288.261 189.908 288.147 185.985 288.147 185.985C288.147 185.985 288.88 185.721 289.935 185.721C290.84 185.721 291.981 185.918 293.088 186.644C293.088 186.644 294.275 185.9 295.675 185.9C296.344 185.9 297.062 186.071 297.721 186.571C297.721 186.571 296.834 190.18 292.925 190.18" fill="#FDA8A3"/>
<path d="M285.917 184.603C286.397 184.992 286.9 185.353 287.426 185.666C287.947 185.99 288.486 186.281 289.046 186.524C290.161 187.014 291.335 187.359 292.538 187.46C293.739 187.567 294.955 187.416 296.113 187.064C297.27 186.693 298.364 186.115 299.393 185.425C298.934 185.843 298.439 186.224 297.913 186.561C297.386 186.9 296.816 187.165 296.233 187.403C295.642 187.624 295.025 187.784 294.397 187.875C293.767 187.955 293.132 187.971 292.497 187.924C291.234 187.808 290.003 187.432 288.891 186.848C287.778 186.265 286.749 185.524 285.917 184.603" fill="#F99893"/>
<path d="M260.337 454.958L269.055 454.807L271.236 454.779C271.967 454.766 272.685 454.781 273.38 454.649C274.785 454.431 276.104 453.781 277.193 452.858C278.261 451.917 279.119 450.703 279.576 449.332C279.827 448.658 279.946 447.94 280.016 447.224C280.058 446.516 280.032 445.752 280.027 445.002L279.921 435.991L279.653 399.939C279.537 387.923 279.558 375.907 279.516 363.891L279.428 327.839L279.436 323.333L279.34 321.174C279.267 320.461 279.138 319.753 279.042 319.043C278.51 316.22 277.427 313.51 275.871 311.123C272.781 306.327 267.767 302.886 262.263 301.873L260.186 301.59C259.489 301.549 258.784 301.549 258.081 301.523L253.731 301.507L245.01 301.484C239.197 301.481 233.382 301.442 227.57 301.39L192.688 301.113C181.061 300.947 169.435 300.851 157.81 300.626C169.435 300.403 181.06 300.304 192.683 300.141L227.554 299.863C233.367 299.812 239.177 299.773 244.989 299.768L253.708 299.747L258.073 299.739C258.823 299.76 259.575 299.76 260.326 299.801L262.574 300.094C268.547 301.165 274.007 304.864 277.39 310.06C279.094 312.647 280.291 315.592 280.885 318.667C280.996 319.439 281.139 320.212 281.219 320.99L281.339 323.333L281.346 327.839L281.258 363.891C281.217 375.907 281.238 387.923 281.121 399.939L280.854 435.991L280.748 445.002C280.735 445.757 280.745 446.493 280.683 447.286C280.587 448.059 280.439 448.834 280.149 449.555C279.622 451.017 278.671 452.293 277.512 453.265C276.33 454.213 274.92 454.864 273.439 455.056C272.7 455.175 271.956 455.142 271.236 455.136L269.055 455.105L260.337 454.958" fill="white"/>
<path fill-rule="evenodd" clip-rule="evenodd" d="M517.149 15.0005C525.664 14.9343 532.511 21.435 535.15 29.585C537.797 37.7611 536.08 47.0707 529.172 52.1307C522.25 57.2014 512.793 56.1657 505.971 50.9598C499.568 46.0744 497.585 37.5767 499.984 29.8584C502.476 21.8437 508.807 15.0654 517.149 15.0005Z" fill="#EDE7F6"/>
<path fill-rule="evenodd" clip-rule="evenodd" d="M533.075 85.7029C537.332 85.7351 540.755 82.5681 542.075 78.5976C543.399 74.6144 542.54 70.079 539.086 67.6138C535.625 65.1435 530.897 65.648 527.485 68.1842C524.284 70.5643 523.293 74.7042 524.492 78.4644C525.738 82.369 528.903 85.6713 533.075 85.7029Z" fill="#EDE7F6"/>
<path fill-rule="evenodd" clip-rule="evenodd" d="M489.075 19.7029C493.332 19.7351 496.755 16.5681 498.075 12.5976C499.399 8.61441 498.54 4.07896 495.086 1.61383C491.625 -0.856537 486.897 -0.351974 483.485 2.18424C480.284 4.56434 479.293 8.70424 480.492 12.4644C481.738 16.369 484.903 19.6713 489.075 19.7029Z" fill="#EDE7F6"/>
<path fill-rule="evenodd" clip-rule="evenodd" d="M626.757 383.518C624.399 381.937 621.301 382.491 619.072 384.275C616.835 386.065 615.606 388.971 616.6 391.647C617.597 394.328 620.419 395.774 623.273 395.576C625.951 395.391 628.061 393.39 628.809 390.801C629.586 388.114 629.067 385.066 626.757 383.518Z" fill="#EDE7F6"/>
<path fill-rule="evenodd" clip-rule="evenodd" d="M617.757 323.518C615.399 321.937 612.301 322.491 610.072 324.275C607.835 326.065 606.606 328.971 607.6 331.647C608.597 334.328 611.419 335.774 614.273 335.576C616.951 335.391 619.062 333.39 619.81 330.801C620.586 328.114 620.067 325.066 617.757 323.518Z" fill="#EDE7F6"/>
<path fill-rule="evenodd" clip-rule="evenodd" d="M608 367.857C603.492 364.886 602.431 358.896 605.304 354.536C608.084 350.318 613.91 349.397 618.271 352.271C622.761 355.23 624.618 361.036 621.756 365.378C618.804 369.858 612.632 370.91 608 367.857Z" fill="#EDE7F6"/>
</svg>
