<svg width="658" height="383" viewBox="0 0 658 383" fill="none" xmlns="http://www.w3.org/2000/svg">
<path fill-rule="evenodd" clip-rule="evenodd" d="M657.587 373.614C657.587 376.929 510.484 379.617 329.024 379.617C147.564 379.617 0.462402 376.929 0.462402 373.614C0.462402 370.296 147.564 367.608 329.024 367.608C510.484 367.608 657.587 370.296 657.587 373.614Z" fill="#CFCAE9"/>
<path d="M297.156 169.762C306.604 177.501 308.11 194.643 308.11 194.643C308.11 194.643 299.99 187.309 289.332 180.82C278.898 174.471 278.396 163.962 278.396 163.962C278.396 163.962 287.707 162.022 297.156 169.762Z" fill="#2C5944"/>
<path d="M306.999 188.236C303.098 185.774 292.487 178.241 288.174 166.346C287.968 165.789 287.786 165.232 287.617 164.675C290.512 165.509 293.819 167.035 297.15 169.762C302.856 174.44 305.678 182.553 306.999 188.236" fill="#B3C761"/>
<path d="M322.602 173.376C313.417 182.701 313.946 201.315 313.946 201.315C313.946 201.315 321.755 192.563 332.397 184.462C342.816 176.527 342.041 165.158 342.041 165.158C342.041 165.158 331.789 164.048 322.602 173.376" fill="#B3C761"/>
<path d="M331.614 175.176C331.614 179.223 330.851 183.075 329.737 186.553C324.018 191.142 319.343 195.683 316.605 198.495C314.897 200.24 313.94 201.319 313.94 201.319C313.94 201.319 313.867 198.542 314.303 194.62C314.982 188.345 316.956 179.102 322.601 173.373C325.327 170.611 328.136 168.769 330.753 167.546C331.287 169.968 331.614 172.535 331.614 175.176Z" fill="#2C5944"/>
<path d="M314.643 110.242C321.061 128.65 308.833 153.243 308.833 153.243C308.833 153.243 303.887 136.491 294.777 118.784C285.86 101.447 293.933 86.7126 293.933 86.7126C293.933 86.7126 308.226 91.8345 314.643 110.242Z" fill="#2C5944"/>
<path d="M309.3 249.099C308.979 249.099 308.711 248.85 308.695 248.527C306.097 195.699 306.826 128.927 310.746 60.511C310.863 58.4661 310.94 57.1185 310.94 56.9042C310.94 56.5693 311.211 56.2966 311.546 56.2966C311.88 56.2966 312.151 56.5693 312.151 56.9042C312.151 57.1418 312.095 58.1428 311.955 60.5772C308.037 128.954 307.309 195.683 309.905 248.464C309.922 248.799 309.664 249.084 309.33 249.099C309.32 249.099 309.31 249.099 309.3 249.099" fill="#B3C761"/>
<path d="M295.828 215.423C295.505 215.423 295.237 215.166 295.224 214.842C294.07 186 284.019 166.7 275.79 155.584C266.891 143.568 258.186 138.302 258.099 138.251C257.811 138.08 257.717 137.71 257.888 137.422C258.06 137.133 258.431 137.04 258.719 137.211C258.808 137.266 267.722 142.653 276.764 154.863C285.094 166.116 295.268 185.642 296.434 214.792C296.447 215.127 296.188 215.407 295.853 215.423C295.845 215.423 295.837 215.423 295.828 215.423" fill="#B3C761"/>
<path d="M318.282 211.68C318.265 211.68 318.249 211.68 318.232 211.68C317.899 211.653 317.65 211.36 317.677 211.025C320.391 177.684 327.805 156.589 333.546 144.764C339.798 131.891 345.344 126.999 345.574 126.796C345.827 126.578 346.209 126.605 346.431 126.858C346.649 127.108 346.622 127.489 346.368 127.711C346.314 127.758 340.732 132.701 334.586 145.391C328.911 157.119 321.578 178.039 318.885 211.123C318.859 211.442 318.594 211.68 318.282 211.68" fill="#7F995A"/>
<path d="M298.822 209.436C298.495 209.436 298.225 209.175 298.217 208.844C297.448 177.68 288.387 155.043 280.921 141.539C272.83 126.905 264.817 119.544 264.737 119.47C264.49 119.244 264.471 118.862 264.696 118.613C264.921 118.367 265.303 118.348 265.551 118.574C265.632 118.648 273.766 126.107 281.952 140.9C289.496 154.528 298.652 177.377 299.428 208.813C299.436 209.148 299.172 209.428 298.838 209.436C298.833 209.436 298.828 209.436 298.822 209.436Z" fill="#7F995A"/>
<path d="M303.218 212.427C302.886 212.427 302.615 212.163 302.612 211.828C302.227 163.982 297.987 131.797 294.498 113.222C290.718 93.0964 286.982 84.1691 286.944 84.0834C286.813 83.7757 286.957 83.4173 287.265 83.2888C287.573 83.1563 287.928 83.3005 288.059 83.6082C288.097 83.6977 291.871 92.6952 295.675 112.922C299.178 131.552 303.437 163.833 303.824 211.82C303.827 212.155 303.558 212.427 303.223 212.427C303.221 212.427 303.219 212.427 303.218 212.427" fill="#B3C761"/>
<path d="M315.101 231.139C314.791 231.139 314.528 230.902 314.498 230.59C314.472 230.31 311.891 202.106 313.28 169.513C314.096 150.357 316.103 133.453 319.246 119.263C323.185 101.479 328.934 87.9202 336.339 78.9695C336.553 78.7124 336.935 78.6773 337.192 78.8877C337.449 79.1019 337.484 79.4836 337.273 79.7407C320.755 99.7142 315.767 139.611 314.49 169.563C313.105 202.079 315.678 230.197 315.704 230.477C315.735 230.812 315.49 231.104 315.157 231.135C315.138 231.139 315.119 231.139 315.101 231.139" fill="#7F995A"/>
<path d="M524.44 286.218H130.891V261.762H524.44V286.218Z" fill="#FFE8BF"/>
<path d="M429.928 236.717C429.25 236.717 428.537 236.803 427.805 236.978C422.325 238.283 419.182 241.761 419.182 246.517C419.182 251.109 421.495 255.74 426.668 255.74C431.385 255.74 436.175 248.546 436.175 243.373C436.175 241.079 435.354 239.167 433.858 237.987C432.798 237.149 431.447 236.717 429.928 236.717V236.717ZM426.668 259.374C420.12 259.374 415.547 254.089 415.547 246.517C415.547 240.129 419.922 235.12 426.964 233.445C430.434 232.615 433.687 233.215 436.113 235.132C438.497 237.017 439.813 239.946 439.813 243.373C439.813 250.427 433.624 259.374 426.668 259.374Z" fill="#CC6937"/>
<path d="M423.735 265.528H408.392C407.586 265.528 406.873 264.991 406.651 264.215C403.407 252.776 401.264 251.899 401.401 231.79C401.409 230.785 402.227 229.971 403.231 229.982L426.909 230.239C427.875 230.247 428.662 231.022 428.697 231.992C429.371 251.288 427.945 252.332 425.507 264.083C425.332 264.92 424.592 265.528 423.735 265.528" fill="#E0733D"/>
<path d="M420.358 265.528H411.212C410.071 265.528 409.082 264.726 408.829 263.612C406.593 253.683 405.121 252.39 405.175 234.695C405.179 233.34 406.289 232.238 407.648 232.257L422.582 232.463C423.891 232.483 424.954 233.542 424.989 234.851C425.417 251.837 424.444 253.263 422.769 263.472C422.574 264.656 421.557 265.528 420.358 265.528" fill="#A64311"/>
<path d="M216.243 213.261L213.493 264.235C213.457 264.963 212.851 265.532 212.137 265.532H190.938C190.223 265.532 189.617 264.963 189.581 264.235L186.831 213.261C186.795 212.474 187.412 211.82 188.188 211.82H214.886C215.662 211.82 216.291 212.474 216.243 213.261" fill="#D1F4FF"/>
<path d="M210.695 215.368L208.987 264.286C208.962 264.987 208.587 265.532 208.139 265.532H194.935C194.487 265.532 194.123 264.987 194.099 264.286L192.597 221.62L192.427 216.728L192.379 215.368C192.355 214.621 192.743 213.99 193.227 213.99H209.847C210.332 213.99 210.719 214.621 210.695 215.368Z" fill="#B3E3F2"/>
<path d="M197.84 233.578L182.484 198.569C181.928 197.3 180.853 196.33 179.536 195.905C178.219 195.481 176.78 195.64 175.589 196.345L160.359 205.354L159.434 203.789L174.664 194.783C176.303 193.813 178.282 193.591 180.094 194.176C181.906 194.76 183.383 196.096 184.147 197.837L199.505 232.849L197.84 233.578" fill="#E0F7FF"/>
<path d="M199.502 232.849L197.842 233.578L188.297 211.82H190.272L199.502 232.849Z" fill="#B3E3F2"/>
<path d="M199.502 232.849L197.842 233.578L192.597 221.62L192.427 216.728L199.502 232.849Z" fill="#8FCFF2"/>
<path d="M214.594 227.906C215.062 227.906 215.434 228.3 215.409 228.767L213.493 264.235C213.457 264.963 212.851 265.532 212.137 265.532H190.938C190.223 265.532 189.617 264.963 189.581 264.235L187.665 228.767C187.64 228.3 188.012 227.906 188.481 227.906H214.594Z" fill="#FFD952"/>
<path d="M210.077 228.767L208.89 264.235C208.866 264.963 208.502 265.532 208.054 265.532H195.02C194.572 265.532 194.208 264.963 194.184 264.235L192.997 228.767C192.985 228.296 193.215 227.906 193.506 227.906H209.569C209.859 227.906 210.089 228.296 210.077 228.767" fill="#FFA91F"/>
<path d="M205.619 247.035L203.96 247.763L195.335 227.906H197.297L205.619 247.035" fill="#FF7F17"/>
<path d="M131.759 270.775H229.383V262.946H131.759V270.775Z" fill="#B8D8E3"/>
<path d="M262.5 162.482L223.083 262.751L225.725 268.368L228.321 270.786L269.684 165.594L262.5 162.482" fill="#D5EBF2"/>
<path d="M131.759 273.209H229.383V268.36H131.759V273.209Z" fill="#373365"/>
<path d="M267.011 164.379L224.905 270.265L229.434 272.929L271.439 166.354L267.011 164.379Z" fill="#373365"/>
<path d="M498.675 241.901L493.74 240.503L487.679 239.42L465.263 231.836C463.733 231.318 462.042 231.544 460.702 232.456L447.089 241.687L439.011 258.455L440.873 258.369C442.178 258.311 443.401 257.726 444.277 256.756L451.962 248.203L459.912 244.596C461.851 243.716 464.11 243.985 465.789 245.297C469.392 248.121 475.694 252.776 478.631 253.228C482.877 253.882 486.265 252.332 486.265 252.332L498.102 255.198L498.675 241.901" fill="#FFC8A3"/>
<path d="M618.777 166.346C621.11 172.352 619.755 178.88 615.817 183.433C609.067 204.595 594.402 249.064 587.422 259.136C574.238 271.032 527.015 270.911 489.225 254.949C494.032 242.076 493.743 240.308 493.743 240.308C493.743 240.308 525.355 242.528 551.464 239.467C557.142 238.801 568.874 236.433 568.235 236.904C568.672 235.708 586.246 169.851 586.931 167.573C588.38 162.778 591.944 158.677 596.977 156.725C605.651 153.364 615.412 157.66 618.777 166.346" fill="#F06C21"/>
<path d="M551.463 239.463C555.682 238.968 563.226 237.539 566.584 237.04C558.529 249.532 515.598 250.077 491.258 249.325C493.95 241.535 493.743 240.312 493.743 240.312C493.743 240.312 525.359 242.528 551.463 239.463" fill="#F06C21"/>
<path d="M458.591 341.185C458.591 341.185 434.107 339.767 436.947 346.86C438.812 351.522 452.203 369.922 461.781 369.922C471.363 369.922 501.872 367.086 506.842 367.441C511.808 367.795 518.196 362.471 515.357 357.15C512.517 351.83 501.518 350.408 493.712 351.121C485.907 351.83 460.718 340.476 458.591 341.185" fill="#DA1C49"/>
<path d="M461.707 342.427C461.707 342.427 438.559 341.068 441.243 347.857C443.003 352.317 455.67 369.922 464.73 369.922C473.789 369.922 502.643 367.207 507.341 367.546C512.038 367.885 518.079 362.794 515.396 357.703C512.708 352.609 502.309 351.253 494.927 351.931C487.546 352.609 463.721 341.746 461.707 342.427Z" fill="#DA1C49"/>
<path d="M467.943 321.827C467.943 321.827 454.19 306.239 461.984 295.235C469.778 284.228 517.924 307.154 544.974 315.867C572.029 324.58 597.245 325.955 597.245 325.955C597.245 325.955 542.684 342.462 467.943 321.827" fill="#322E5C"/>
<path d="M584.867 325.955L574.413 324.386C574.413 324.386 556.897 326.871 520.214 319.996C483.535 313.117 450.061 298.445 442.723 308.529C435.389 318.617 451.896 352.55 490.409 364.929C528.927 377.311 615.127 374.557 620.631 370.888C626.135 367.223 593.58 325.036 584.867 325.955Z" fill="#373365"/>
<path d="M620.635 370.884C615.135 374.557 528.923 377.307 490.413 364.925C476.566 360.481 465.567 353.248 457.5 345.349C463.179 348.449 469.563 351.078 476.637 352.971C500.645 359.382 542.337 359.207 572.161 357.193C576.796 356.882 579.472 351.842 577.217 347.779C572.851 339.903 569.922 331.973 567.963 324.779C572.274 324.686 574.409 324.382 574.409 324.382L584.863 325.955C593.584 325.036 626.134 367.227 620.635 370.884" fill="#373365"/>
<path d="M464.391 238.47L464.032 237.024L446.143 239.467C446.143 239.467 440.409 245.403 440.39 246.014C440.366 246.626 440.468 255.428 440.468 255.428L446.1 252.355L464.391 238.47Z" fill="#FF825C"/>
<path d="M554.26 37.4488C554.26 37.4488 546.91 19.9603 553.754 7.2821C560.597 -5.39222 581.638 0.185387 586.709 12.8597C591.781 25.5379 569.976 37.1957 567.188 38.9718C564.399 40.7479 558.568 41.7606 554.26 37.4488" fill="#373365"/>
<path d="M643.203 358.782C635.993 369.879 619.108 373.805 614.601 372.68C610.107 371.55 585.105 358.14 574.409 324.382C588.544 314.169 595.123 299.851 592.832 281.946C591.839 274.218 589.187 265.813 584.789 256.788C583.445 254.026 582.004 251.553 580.536 249.325C571.137 234.898 560.636 230.076 564.535 217.405C569.03 202.784 577.618 177.684 580.851 166.213C585.541 149.543 603.361 137.768 603.361 137.768C608.51 147.775 618.683 156.316 631.923 192.84C651.705 270.561 647.468 352.231 643.203 358.782" fill="#F6921D"/>
<path d="M617.862 198.655C617.425 200.723 607.407 265.01 601.834 275.733C599.882 278.012 596.794 280.092 592.832 281.946C591.839 274.218 589.187 265.813 584.789 256.788C583.445 254.026 582.004 251.553 580.536 249.325C581.751 233.297 584.439 194.304 584.754 192.427C585.576 187.484 588.595 182.966 593.343 180.399C601.518 175.963 611.742 178.993 616.187 187.18C618.161 190.826 618.648 194.885 617.862 198.655" fill="#F06C21"/>
<path d="M526.197 114.137C526.197 114.137 524.331 114.437 521.41 114.609C512.654 115.103 494.433 114.34 488.875 100.326C488.232 98.7406 487.761 96.9956 487.48 95.0559C483.932 70.2487 514.192 61.2473 514.192 61.2473L515.014 64.8579L521.702 94.3159L526.197 114.137Z" fill="#373365"/>
<path d="M521.41 114.609C512.654 115.103 494.433 114.34 488.875 100.326C491.321 101.751 494.339 103.204 497.993 104.361C499.824 104.941 501.611 103.278 501.156 101.409C499.029 92.6332 500.116 76.4223 512.603 66.0187C513.476 65.2826 514.29 64.9047 515.014 64.858C519.859 64.4685 521.472 78.1945 521.702 94.3159C521.799 100.945 521.655 107.983 521.41 114.609" fill="#373365"/>
<path d="M598.749 84.8314C598.749 109.989 578.008 130.383 552.426 130.383C526.843 130.383 506.102 109.989 506.102 84.8314C506.102 59.6736 526.843 39.2755 552.426 39.2755C578.008 39.2755 598.749 59.6736 598.749 84.8314Z" fill="#373365"/>
<path d="M603.356 137.768C603.356 137.768 599.929 139.77 585.642 160.013C585.019 160.909 583.609 160.636 583.371 159.545C581.256 150.201 579.067 144.729 576.987 142.361C575.083 140.172 573.24 140.585 571.659 143.003C567.928 148.698 564.122 154.7 560.745 156.764C559.721 157.388 558.747 157.66 557.816 157.465C553.851 156.636 548.199 151.241 543.962 146.587C543.401 145.979 542.855 145.371 542.361 144.811C539.736 141.835 537.959 139.529 537.959 139.529C537.959 139.529 533.032 140.538 530.119 140.409C528.872 140.363 528.152 138.988 528.759 137.932C531.065 133.979 530.793 127.61 527.657 123.93C524.713 120.49 518.282 117.257 512.358 107.419C510.823 104.891 509.335 101.911 507.96 98.3783C501.175 81.1429 516.888 58.6649 516.888 58.6649C516.888 58.6649 532.791 27.6373 563.355 37.7332C599.676 49.7337 592.283 80.2159 591.979 101.144C591.675 122.075 603.356 137.768 603.356 137.768" fill="#FFA778"/>
<path d="M530.119 140.409C528.873 140.362 528.152 138.987 528.76 137.932C531.065 133.978 530.793 127.61 527.657 123.929C524.713 120.49 518.282 117.257 512.358 107.418C512.615 107.29 512.887 107.224 513.191 107.239C513.191 107.239 518.664 115.465 527.513 121.931C534.633 127.131 531.915 136.202 530.119 140.409" fill="#FFA778"/>
<path d="M598.067 96.715C595.571 103.173 591.465 106.974 594.02 116.544C584.961 112.186 581.155 104.649 578.974 97.2603C576.781 89.8832 568.399 86.8568 564.535 90.0546C560.671 93.2407 560.344 98.4366 560.344 107.835C557.657 95.9282 541.204 98.7755 524.257 90.5492C520.14 88.5511 517.219 85.996 515.162 83.2811C508.751 74.8368 510.679 64.8072 510.679 64.8072C513.366 54.0648 524.95 45.04 530.894 41.0788C542.415 33.3979 563.071 30.2468 580.61 42.0097C585.26 45.1257 588.922 48.8688 591.781 52.9391C602.27 67.9232 601.678 87.3748 598.067 96.715Z" fill="#373365"/>
<path d="M598.067 96.715C595.571 103.173 591.465 106.974 594.02 116.544C584.961 112.186 581.155 104.649 578.974 97.2603C576.781 89.8832 568.399 86.8568 564.535 90.0546C560.671 93.2407 560.344 98.4366 560.344 107.835C557.657 95.9282 541.204 98.7755 524.257 90.5492C520.14 88.5511 517.219 85.996 515.162 83.2811C521.41 87.7526 538.999 95.9048 570.872 78.6422C582.222 72.4881 588.556 63.1868 591.781 52.9391C602.27 67.9232 601.678 87.3748 598.067 96.715Z" fill="#373365"/>
<path d="M619.01 345.271C597.545 345.271 575.398 324.814 575.172 324.6C574.927 324.374 574.911 323.988 575.141 323.743C575.371 323.501 575.753 323.49 575.998 323.716C576.228 323.93 599.173 345.123 620.646 344.016C620.989 343.997 621.266 344.254 621.281 344.589C621.301 344.924 621.044 345.208 620.709 345.224C620.144 345.255 619.579 345.271 619.01 345.271Z" fill="#FAB780"/>
<path d="M623.712 358.113C623.677 358.113 623.646 358.109 623.614 358.105C608.985 355.733 596.252 346.782 588.147 339.697C579.379 332.032 573.98 324.818 573.926 324.748C573.727 324.479 573.782 324.097 574.05 323.899C574.319 323.7 574.697 323.755 574.896 324.023C575.11 324.308 596.338 352.453 623.805 356.909C624.136 356.96 624.362 357.271 624.308 357.602C624.261 357.898 624.004 358.113 623.712 358.113" fill="#FAB780"/>
<path d="M572.282 113.658C577.319 113.051 580.368 106.172 579.157 98.7678C577.946 91.3634 572.905 86.0234 567.896 86.8413C562.891 87.6632 559.81 94.3275 561.022 101.732C561.022 101.732 563.343 114.733 572.282 113.658Z" fill="#FFA778"/>
<path d="M567.745 109.736C567.651 109.736 567.562 109.709 567.48 109.65C567.277 109.506 567.23 109.222 567.375 109.019C567.394 108.988 569.427 106.11 568.528 104.189C568.037 103.134 566.709 102.522 564.582 102.363L564.142 102.331L564.161 101.891C564.399 96.5629 565.493 93.4742 567.417 92.7069C569.287 91.9629 571.11 93.6923 571.188 93.7663C571.367 93.9377 571.371 94.2259 571.2 94.409C571.024 94.5882 570.736 94.592 570.557 94.4207C570.541 94.4051 569.073 93.0224 567.752 93.5521C566.705 93.9727 565.404 95.6982 565.092 101.498C567.316 101.739 568.75 102.514 569.353 103.808C570.475 106.211 568.212 109.413 568.115 109.549C568.025 109.67 567.885 109.736 567.745 109.736" fill="#B73D48"/>
<path d="M549.913 135.988C549.952 137.091 549.746 138.084 549.442 139.089C549.126 140.094 548.679 141.04 548.145 141.936C547.6 142.832 546.973 143.669 546.256 144.444C545.555 145.219 544.78 145.909 543.966 146.575C543.966 146.575 543.954 146.575 543.954 146.587C543.397 145.983 542.852 145.375 542.357 144.807C542.357 144.795 542.427 144.725 542.427 144.725C542.478 144.686 542.513 144.662 542.548 144.639L542.587 144.612C543.374 144.117 544.137 143.595 544.838 142.991C545.555 142.384 546.194 141.718 546.778 141.005C547.346 140.277 547.857 139.49 548.242 138.641C548.62 137.807 548.92 136.872 549.006 136L549.017 135.953C549.041 135.696 549.259 135.517 549.516 135.54C549.746 135.564 549.913 135.758 549.913 135.988" fill="#B73D48"/>
<path d="M537.551 122.239C537.48 122.239 537.406 122.212 537.348 122.161C534.061 119.189 533.928 115.212 533.881 113.904C533.878 113.744 533.87 113.565 533.862 113.518C533.807 113.362 533.897 113.195 534.053 113.144C534.213 113.09 534.384 113.179 534.438 113.339C534.47 113.436 534.477 113.569 534.489 113.884C534.536 115.259 534.66 118.913 537.753 121.709C537.878 121.822 537.889 122.013 537.776 122.138C537.718 122.204 537.632 122.239 537.551 122.239" fill="#B73D48"/>
<path d="M538.929 106.133C537.928 106.164 536.896 106.23 535.891 106.328C534.883 106.437 533.881 106.577 532.896 106.764L532.16 106.912L531.435 107.091C531.19 107.142 530.952 107.216 530.715 107.282C530.477 107.352 530.232 107.407 530.002 107.496L529.301 107.738C529.071 107.82 528.845 107.913 528.604 107.975C528.117 108.092 527.653 108.24 527.073 108.225H527.018C526.746 108.217 526.528 107.991 526.535 107.714C526.539 107.605 526.574 107.508 526.637 107.43C527.35 106.48 528.409 106.047 529.449 105.751C530.493 105.436 531.556 105.194 532.627 105.066C533.695 104.933 534.77 104.871 535.837 104.894C536.908 104.922 537.96 105.007 539.031 105.229C539.276 105.28 539.436 105.522 539.385 105.767C539.342 105.977 539.159 106.125 538.953 106.129L538.929 106.133" fill="#231F20"/>
<path d="M497.935 268.13H400.31V260.301H497.935V268.13Z" fill="#B8D8E3"/>
<path d="M367.191 159.837L406.609 260.106L403.968 265.719L401.374 268.142L360.009 162.946L367.191 159.837" fill="#D5EBF2"/>
<path d="M497.935 270.56H400.31V265.711H497.935V270.56Z" fill="#373365"/>
<path d="M290.726 87.1099C299.148 104.688 298.028 129.69 298.028 129.69C298.028 129.69 280.352 115.38 271.93 97.7978C263.508 80.2196 267.53 66.0262 267.53 66.0262C267.53 66.0262 282.304 69.5279 290.726 87.1099Z" fill="#7F995A"/>
<path d="M325.966 73.5357C323.838 92.9134 309.688 113.557 309.688 113.557C309.688 113.557 302.231 92.072 304.36 72.6944C306.488 53.3168 317.397 43.3884 317.397 43.3884C317.397 43.3884 328.093 54.162 325.966 73.5357Z" fill="#B3C761"/>
<path d="M344.752 99.3559C336.775 117.144 316.971 132.444 316.971 132.444C316.971 132.444 316.472 109.705 324.448 91.9165C332.424 74.1319 345.854 68.0285 345.854 68.0285C345.854 68.0285 352.729 81.5675 344.752 99.3559Z" fill="#7F995A"/>
<path d="M345.695 140.947C339.155 155.53 322.92 168.071 322.92 168.071C322.92 168.071 322.511 149.43 329.051 134.851C335.587 120.268 346.598 115.267 346.598 115.267C346.598 115.267 352.23 126.364 345.695 140.947Z" fill="#B3C761"/>
<path d="M332.128 136.499C332.128 139.533 329.667 141.991 326.632 141.991C323.6 141.991 321.14 139.533 321.14 136.499C321.14 133.464 323.6 131.007 326.632 131.007C329.667 131.007 332.128 133.464 332.128 136.499Z" fill="#FFC144"/>
<path d="M300.215 75.3275C300.215 78.3617 297.756 80.8195 294.722 80.8195C291.688 80.8195 289.229 78.3617 289.229 75.3275C289.229 72.2933 291.688 69.8356 294.722 69.8356C297.756 69.8356 300.215 72.2933 300.215 75.3275Z" fill="#FFC144"/>
<path d="M266.94 138.516C266.94 141.55 264.481 144.008 261.447 144.008C258.413 144.008 255.954 141.55 255.954 138.516C255.954 135.482 258.413 133.02 261.447 133.02C264.481 133.02 266.94 135.482 266.94 138.516Z" fill="#FFC144"/>
<path d="M270.638 119.022C270.638 122.056 268.178 124.514 265.144 124.514C262.111 124.514 259.651 122.056 259.651 119.022C259.651 115.988 262.111 113.53 265.144 113.53C268.178 113.53 270.638 115.988 270.638 119.022Z" fill="#F28841"/>
<path d="M287.262 139.864C296.078 153.925 297.539 175.18 297.539 175.18C297.539 175.18 281.212 164.772 272.396 150.715C263.581 136.654 265.616 124.264 265.616 124.264C265.616 124.264 278.447 125.807 287.262 139.864Z" fill="#7F995A"/>
<path d="M306.82 141.453C312.151 156.157 305.822 171.939 305.822 171.939C305.822 171.939 290.85 163.877 285.52 149.173C280.189 134.465 286.518 118.687 286.518 118.687C286.518 118.687 301.49 126.746 306.82 141.453Z" fill="#B3C761"/>
<path d="M327.326 168.441C327.326 184.084 315.995 196.762 315.995 196.762C315.995 196.762 304.666 184.084 304.666 168.441C304.666 152.799 315.995 140.121 315.995 140.121C315.995 140.121 327.326 152.799 327.326 168.441Z" fill="#7F995A"/>
<path d="M318.797 265.528H297.038C296.529 265.528 296.109 265.127 296.085 264.617L293.301 206.141C293.274 205.6 293.709 205.144 294.254 205.144H321.582C322.127 205.144 322.561 205.6 322.535 206.141L319.75 264.617C319.726 265.127 319.307 265.528 318.797 265.528" fill="#367287"/>
<path d="M316.234 265.528H299.602C299.055 265.528 298.607 265.096 298.586 264.55L296.396 206.196C296.374 205.623 296.835 205.144 297.411 205.144H318.425C319.001 205.144 319.461 205.623 319.44 206.196L317.249 264.55C317.229 265.096 316.78 265.528 316.234 265.528Z" fill="#2B5B6C"/>
<path d="M362.681 161.734L404.786 267.62L400.26 270.28L358.252 163.709L362.681 161.734Z" fill="#373365"/>
<path d="M477.778 288.591H177.552V323.174H477.778V288.591Z" fill="#FFB361"/>
<path d="M507.551 382.37H494.702L468.703 303.146L466.899 297.658L466.475 296.361H485.046L485.385 297.658L486.826 303.146L507.551 382.37" fill="#FFC87E"/>
<path d="M180.435 286.452L176.753 297.658L174.96 303.146L152.21 372.462H139.357L157.492 303.146L158.933 297.658L161.865 286.452H180.435Z" fill="#F0883E"/>
<path d="M176.753 297.658L174.96 303.146H157.492L158.933 297.658H176.753Z" fill="#E35E24"/>
<path d="M188.854 296.361L188.43 297.658L186.625 303.146L160.63 382.37H147.776L168.503 303.146L169.945 297.658L170.284 296.361H188.854" fill="#FFC87E"/>
<path d="M524.44 297.65H130.891V273.194H524.44V297.65Z" fill="#FFC87E"/>
<path d="M486.826 303.146H168.503L169.945 297.658H485.385L486.826 303.146Z" fill="#F0883E"/>
<path d="M497.946 253.707L493.35 251.42L487.597 249.243L466.965 237.652C465.555 236.857 463.853 236.771 462.365 237.418L447.284 243.977L436.249 258.965L438.096 259.226C439.389 259.405 440.701 259.062 441.737 258.268L450.871 251.28L459.351 249.204C461.419 248.698 463.592 249.376 464.998 250.976C468.017 254.42 473.353 260.157 476.154 261.142C480.204 262.564 483.827 261.668 483.827 261.668L494.927 266.673L497.946 253.707" fill="#FFA778"/>
<path d="M617.071 195.068C616.432 196.883 601.553 248.367 593.646 265.411C592.832 267.18 592.081 268.574 591.442 269.505C578.261 281.4 526.621 282.02 488.836 266.066C489.042 265.509 489.237 264.975 489.432 264.465C493.623 253.045 493.354 251.421 493.354 251.421C493.354 251.421 524.962 253.637 551.066 250.571C556.543 249.929 571.733 247.023 572.263 247.241C572.808 245.434 584.318 186.974 585.007 184.711C586.46 179.912 590.024 175.807 595.049 173.856C603.723 170.502 613.488 174.79 616.857 183.476C618.356 187.352 618.333 191.434 617.071 195.068" fill="#F6921D"/>
<path d="M128.489 263.144L139.643 254.139L157.816 249.71C159.463 249.309 161.199 249.827 162.358 251.066L168.477 257.606L170.787 265.115L167.952 265.851L164.933 260.543C164.933 260.543 147.699 264.702 141.859 262.646C134.42 272.251 132.986 274.128 132.986 274.128L128.489 263.144" fill="#FFC8A3"/>
<path d="M140.265 265.692C140.265 265.692 140.206 265.809 140.089 266.015C138.284 269.287 118.786 296.832 105.916 303.142C100.041 303.123 62.5951 291.921 62.5951 291.921C55.8653 291.29 50.9159 285.311 51.5492 278.58C52.1822 271.854 58.1587 266.915 64.888 267.55C67.0953 267.756 69.1141 268.543 70.8026 269.735L103.399 281.525L133.169 258.611L133.191 258.638L140.265 265.692" fill="#DA1C49"/>
<path d="M158.587 255.288L168.019 257.037C169.084 257.236 169.968 257.972 170.355 258.981L171.259 261.349C171.502 261.984 171.577 262.673 171.475 263.347L170.859 267.437L158.587 255.288Z" fill="#FF825C"/>
<path d="M129.6 268.648L140.433 259.257L158.44 254.198C160.073 253.738 161.826 254.194 163.027 255.393L169.371 261.715L173.05 267.558L171.374 267.437C170.578 267.382 169.824 267.055 169.235 266.518L167.654 265.065L164.748 263.405C164.748 263.405 148.853 269.532 142.945 267.678C135.845 277.54 134.478 279.464 134.478 279.464L129.6 268.648" fill="#FFA778"/>
<path d="M91.4823 366.292C90.1697 370.027 92.943 373.942 96.9042 373.942H124.372C129.542 373.942 134.42 371.449 137.363 367.196C140.342 362.895 142.809 357.82 139.425 356.126C136.213 354.521 124.389 358.767 113.28 360.816C106.827 362.007 100.603 362.358 96.7492 362.451C94.3646 362.51 92.2726 364.041 91.4823 366.292" fill="#DA1C49"/>
<path d="M146.026 330.726C146.888 335.755 144.647 340.6 140.683 343.284C140.685 343.296 140.685 343.296 140.687 343.307C131.138 352.912 105.943 365.24 95.2219 370.089C90.1467 372.387 84.7977 374.019 79.2937 374.962L64.0408 374.226C57.6433 374.869 49.4708 369.513 46.8768 367.219L45.4453 349.267L81.1376 337.305L85.1147 341.072C87.8089 338.937 125.789 322.82 125.789 322.82C125.789 322.82 125.842 322.835 125.947 322.878C127.509 321.667 129.402 320.81 131.492 320.451C138.345 319.275 144.852 323.887 146.026 330.726" fill="#322E5C"/>
<path d="M149.433 342.497C149.433 347.596 146.404 351.993 142.043 353.968C142.043 353.98 142.043 353.98 142.043 353.991C131.008 361.844 103.987 370.942 92.5998 373.91C87.2091 375.316 81.6615 376.018 76.0768 376.018L60.6261 375.799C54.2118 375.352 48.7951 371.305 46.6267 368.602L45.815 367.608L47.0626 344.967L84.2637 339.214L87.5468 343.6C90.5631 341.952 130.826 331.28 130.826 331.28C130.826 331.28 130.874 331.303 130.971 331.365C132.716 330.431 134.727 329.912 136.846 329.912C143.8 329.912 149.433 335.556 149.433 342.497Z" fill="#373365"/>
<path d="M49.9297 255.604C49.9297 255.604 42.3921 265.696 43.8515 282.475C44.6648 286.246 45.325 289.401 45.8609 292.038C47.4322 299.773 47.7968 314.033 46.9406 321.877C45.9914 330.575 40.5637 342.1 40.3491 346.817C39.9842 354.84 41.8082 362.868 45.8208 367.608C69.821 364.749 87.0396 342.439 87.0396 342.439C87.0396 342.439 102.037 294.172 66.1025 264.963C50.4173 253.656 49.9297 255.604 49.9297 255.604" fill="#DA1C49"/>
<path d="M93.542 235.392C92.3899 236.849 89.6377 237.601 89.6377 237.601C89.6377 237.601 90.4377 257.874 71.0932 256.418C71.0453 256.418 71.0133 256.402 70.965 256.402C70.6612 256.386 70.3734 256.355 70.0692 256.308C69.9574 256.308 69.8612 256.289 69.749 256.273C69.3171 256.227 68.8851 256.164 68.4212 256.098C68.4048 256.083 68.3733 256.083 68.3573 256.083C67.6048 256.02 67.1253 256.289 66.8531 256.803C66.709 257.045 66.6291 257.348 66.5812 257.699C66.501 258.435 66.5812 259.393 66.7892 260.453C67.3972 263.795 69.0931 268.293 69.6372 271.203C69.8612 272.434 68.6132 273.411 67.4611 272.917L48.2922 264.433C47.1405 263.876 46.5161 262.548 46.9005 261.314C47.6363 258.836 47.6523 254.065 41.4121 247.49C31.9398 237.492 -0.925 218.017 16.7715 186.226C33.076 156.912 68.3733 171.487 75.5892 177.711C76.1976 178.241 76.6136 178.705 76.7896 179.071C76.7896 179.071 108.038 184.609 89.7179 217.651C87.2859 223.762 86.3257 229.234 93.1101 233.441C93.7983 233.873 94.0378 234.754 93.542 235.392" fill="#FFA778"/>
<path d="M65.2207 256.994C65.7329 257.045 66.277 256.979 66.8531 256.803C66.709 257.045 66.6291 257.349 66.5812 257.699C65.0131 257.205 64.4051 256.916 65.2207 256.994Z" fill="#FF9763"/>
<path d="M93.542 235.393C92.3899 236.85 89.6377 237.601 89.6377 237.601C89.6377 237.601 90.4377 257.875 71.0932 256.418C71.0452 256.418 71.0133 256.402 70.965 256.402C70.6612 256.387 70.3734 256.356 70.0692 256.309C69.9574 256.309 69.8612 256.289 69.749 256.274C69.317 256.227 68.8851 256.165 68.4212 256.099C72.4214 253.699 76.4694 246.899 74.7093 239.763C72.4693 230.625 74.0051 230.707 79.4456 213.986C84.8858 197.265 67.4451 184.434 67.4451 184.434C68.309 181.104 71.3171 178.978 75.5892 177.712C76.1976 178.241 76.6135 178.705 76.7896 179.071C76.7896 179.071 108.038 184.61 89.7179 217.651C87.2859 223.762 86.3257 229.235 93.1101 233.441C93.7983 233.874 94.0379 234.754 93.542 235.393" fill="#FFA778"/>
<path d="M78.8092 234.723C77.9916 236.296 75.6885 236.713 73.665 235.661C71.6412 234.61 70.6635 232.479 71.4811 230.909C72.2987 229.34 73.965 229.457 75.988 230.512C78.0119 231.564 79.6267 233.153 78.8092 234.723" fill="#FF825C"/>
<path d="M58.0994 253.162C57.7454 252.663 58.3137 252.024 58.8508 252.32C61.2653 253.641 65.5568 255.709 69.7525 256.278C69.3038 256.231 68.8317 256.157 68.3593 256.083C66.4694 255.927 66.5777 259.144 67.0622 261.762C62.6507 259.709 59.5546 255.218 58.0994 253.162" fill="#FF825C"/>
<path d="M75.1985 185.739C75.1985 185.739 83.9798 202.102 73.1517 210.422C63.1248 218.122 48.1929 216.95 54.4907 232.347C50.059 227.914 46.3268 221.85 46.3268 221.85L39.562 238.645C39.562 238.645 45.1599 242.945 43.3503 250.739C41.0179 246.54 32.7975 244.242 21.1343 233.745C9.47154 223.248 -0.325563 197.592 21.601 178.23C43.5275 158.871 68.7044 171.242 78.0348 178.008C98.3286 183.137 105.74 192.376 104.337 204.899C103.031 216.549 89.7132 217.651 89.7132 217.651C89.7132 217.651 95.8965 206.873 89.0133 194.094C85.7477 188.025 75.1985 185.739 75.1985 185.739Z" fill="#373365"/>
<path d="M75.1985 185.739C75.1985 185.739 95.8802 199.196 89.7156 217.647C89.7156 217.647 104.179 194.304 75.1985 185.739Z" fill="#373365"/>
<path d="M57.9658 211.82C62.6901 211.82 67.3419 211.652 71.8722 211.325C61.915 218.048 48.4562 217.6 54.4892 232.342C50.0555 227.918 46.3245 221.849 46.3245 221.849L39.5651 238.641C39.5651 238.641 45.1614 242.941 43.3444 250.742C41.0187 246.54 32.7932 244.249 21.1402 233.745C14.5019 227.774 8.46895 216.907 8.54179 205.074C22.9447 209.35 39.8681 211.82 57.9658 211.82Z" fill="#373365"/>
<path d="M104.179 205.981C102.193 216.619 89.7155 217.647 89.7155 217.647C89.7155 217.647 91.7265 214.122 92.1748 208.72C96.3296 207.944 100.339 207.025 104.179 205.981Z" fill="#373365"/>
<path d="M50.3613 238.205C49.8518 239.412 49.0705 240.366 47.9826 240.931C43.7697 243.116 36.5585 238.59 33.5715 232.826C30.5844 227.061 32.0127 219.902 36.2255 217.721C40.4384 215.536 45.8407 219.154 48.8274 224.919L50.3613 238.205Z" fill="#FFA778"/>
<path d="M47.484 234.088C47.4684 234.088 47.4524 234.088 47.4361 234.088C45.5606 233.889 44.3205 233.2 43.7495 232.035C42.6468 229.784 44.5569 226.66 44.6387 226.527C44.7707 226.313 45.0512 226.251 45.2638 226.379C45.4769 226.512 45.5427 226.792 45.4107 227.007C45.3936 227.034 43.6833 229.838 44.5662 231.638C44.9904 232.502 45.9879 233.02 47.5307 233.184C47.7804 233.211 47.9615 233.433 47.9354 233.683C47.9109 233.916 47.7138 234.088 47.484 234.088Z" fill="#B73D48"/>
<path d="M80.7469 242.154C81.1824 242.563 81.6751 242.976 82.169 243.323C82.6699 243.673 83.1891 243.977 83.7254 244.219C84.2579 244.468 84.8149 244.636 85.3754 244.745C85.5171 244.764 85.6574 244.795 85.7987 244.811C85.9417 244.819 86.0831 244.834 86.2249 244.873C86.51 244.959 86.7982 245.009 87.1289 245.247L87.1974 245.298C87.4171 245.453 87.467 245.761 87.3088 245.979C87.282 246.018 87.2489 246.053 87.2142 246.081C86.5594 246.595 85.7629 246.575 85.0525 246.392C84.8698 246.365 84.6906 246.322 84.5157 246.264C84.3405 246.205 84.1609 246.162 83.9899 246.096C83.6522 245.952 83.3161 245.808 83.0033 245.625C82.3743 245.267 81.8009 244.83 81.3078 244.324C80.8116 243.814 80.3898 243.276 80.0548 242.622C79.9492 242.415 80.031 242.162 80.2375 242.057C80.3991 241.975 80.5896 242.006 80.7154 242.123L80.7469 242.154" fill="#B73D48"/>
<path d="M73.9579 216.478C74.5184 216.015 75.1081 215.649 75.7348 215.314C76.3596 214.983 77.0135 214.698 77.7026 214.48C78.3928 214.266 79.1098 214.102 79.862 214.052C80.0485 214.036 80.2409 214.04 80.4306 214.036C80.6199 214.028 80.8135 214.052 81.004 214.098C81.3818 214.172 81.7561 214.371 82.0478 214.687C82.2282 214.881 82.2177 215.181 82.0237 215.364C81.9851 215.399 81.9419 215.427 81.8963 215.45L81.8122 215.489C81.4406 215.656 81.1574 215.676 80.8548 215.719C80.5646 215.73 80.2639 215.727 79.9648 215.73C79.6614 215.754 79.3576 215.777 79.0495 215.836C78.741 215.867 78.4309 215.941 78.1209 216.007C77.4989 216.139 76.8788 216.33 76.2548 216.529C75.6363 216.731 75.0029 216.961 74.3945 217.191L74.3747 217.199C74.1569 217.281 73.9135 217.168 73.8317 216.95C73.7663 216.778 73.8231 216.587 73.9579 216.478" fill="#231F20"/>
<path d="M75.0817 224.043C75.8198 224.409 76.5949 224.783 77.3505 225.098C78.1128 225.41 78.875 225.675 79.6217 225.842C80.3641 226.006 81.0948 226.064 81.716 225.955C82.0327 225.908 82.3022 225.788 82.601 225.714C82.9044 225.64 83.2304 225.569 83.7445 225.542L83.8672 225.534C84.261 225.511 84.5979 225.811 84.6205 226.204C84.6236 226.259 84.6205 226.313 84.6123 226.36C84.5161 226.956 84.1512 227.431 83.6857 227.77C83.2136 228.109 82.636 228.245 82.0934 228.339C80.9849 228.51 79.9454 228.312 79.0113 228.019C78.0796 227.704 77.2301 227.276 76.4574 226.757C75.6788 226.239 74.9773 225.675 74.3338 224.974C74.1087 224.728 74.1247 224.346 74.3701 224.121C74.559 223.949 74.8289 223.918 75.0458 224.023L75.0817 224.043" fill="#231F20"/>
<path d="M46.9196 230.177C46.756 230.177 46.5979 230.091 46.5169 229.936C44.4704 226.029 42.2464 223.813 40.0851 223.532C38.1446 223.279 36.8787 224.631 36.8257 224.689C36.6563 224.872 36.3692 224.888 36.1846 224.716C35.9992 224.549 35.9852 224.265 36.1531 224.078C36.2177 224.004 37.771 222.325 40.1867 222.629C42.6955 222.948 45.096 225.266 47.3216 229.515C47.438 229.737 47.3524 230.01 47.13 230.126C47.063 230.162 46.9905 230.177 46.9196 230.177" fill="#B73D48"/>
<path d="M141.458 270.779C141.458 270.779 141.403 270.896 141.293 271.11C139.604 274.444 119.462 301.245 106.819 307.999C100.947 308.186 64.7501 299.703 64.7501 299.703C58.0028 299.306 52.8478 293.506 53.2455 286.756C53.6436 280.01 59.444 274.865 66.1917 275.266C68.4048 275.394 70.4497 276.111 72.1787 277.244L105.167 287.889L134.119 263.951L134.142 263.978L141.458 270.779" fill="#E1204D"/>
<path d="M359.218 248.636C359.218 254.833 354.579 259.857 348.853 259.857C343.124 259.857 338.485 254.833 338.485 248.636C338.485 242.439 343.124 237.414 348.853 237.414C354.579 237.414 359.218 242.439 359.218 248.636Z" fill="#FFA23B"/>
<path d="M356.11 248.636C356.11 252.975 352.861 256.492 348.853 256.492C344.842 256.492 341.593 252.975 341.593 248.636C341.593 244.297 344.842 240.783 348.853 240.783C352.861 240.783 356.11 244.297 356.11 248.636Z" fill="#FF7E21"/>
<path d="M342.372 241.905C342.372 248.102 337.729 253.123 332.004 253.123C326.278 253.123 321.636 248.102 321.636 241.905C321.636 235.708 326.278 230.684 332.004 230.684C337.729 230.684 342.372 235.708 342.372 241.905Z" fill="#FFA23B"/>
<path d="M339.599 242.843C339.599 247.899 335.809 252.001 331.135 252.001C326.462 252.001 322.673 247.899 322.673 242.843C322.673 237.784 326.462 233.682 331.135 233.682C335.809 233.682 339.599 237.784 339.599 242.843Z" fill="#FF7E21"/>
<path d="M379.694 247.794C379.694 253.991 375.055 259.016 369.329 259.016C363.6 259.016 358.961 253.991 358.961 247.794C358.961 241.597 363.6 236.573 369.329 236.573C375.055 236.573 379.694 241.597 379.694 247.794" fill="#FFA23B"/>
<path d="M376.784 247.794C376.784 252.25 373.446 255.865 369.329 255.865C365.208 255.865 361.871 252.25 361.871 247.794C361.871 243.334 365.208 239.724 369.329 239.724C373.446 239.724 376.784 243.334 376.784 247.794Z" fill="#FF7E21"/>
<path d="M326.819 252.001C326.819 258.198 322.178 263.222 316.452 263.222C310.726 263.222 306.084 258.198 306.084 252.001C306.084 245.804 310.726 240.783 316.452 240.783C322.178 240.783 326.819 245.804 326.819 252.001Z" fill="#FFA23B"/>
<path d="M372.909 267.799H313.62L303.625 250.754H382.903L372.909 267.799" fill="#508CA1"/>
<path d="M544.678 113.888C544.924 114.695 544.951 115.435 544.916 116.159C544.873 116.884 544.729 117.573 544.507 118.243C544.051 119.567 543.292 120.817 542.073 121.854C541.765 122.107 541.426 122.352 541.064 122.574L540.48 122.878C540.269 122.971 540.055 123.065 539.833 123.135C538.949 123.435 537.858 123.548 536.853 123.271C535.845 123.006 535.03 122.395 534.544 121.698C534.427 121.515 534.314 121.339 534.216 121.156C534.139 120.965 534.061 120.779 534.002 120.584C533.87 120.21 533.843 119.789 533.835 119.388L534.022 119.232C534.847 120.097 535.88 120.829 537.025 120.88C538.162 120.934 539.257 120.346 540.137 119.567C541.048 118.808 541.816 117.861 542.521 116.88C542.879 116.389 543.214 115.882 543.533 115.364C543.86 114.85 544.172 114.324 544.456 113.791L544.678 113.888" fill="#231F20"/>
<path d="M548.756 122.788C549.964 124.085 549.586 126.395 547.915 127.949C546.244 129.499 543.915 129.71 542.707 128.413C541.504 127.115 542.174 125.585 543.845 124.031C545.516 122.48 547.553 121.491 548.756 122.788Z" fill="#FF825C"/>
<path d="M591.8 268.952C591.676 269.151 591.559 269.338 591.442 269.505C578.261 281.4 526.621 282.02 488.836 266.066C489.042 265.509 489.237 264.975 489.432 264.465C505.639 268.391 533.936 271.733 576.929 265.532C582.394 264.434 586.515 264.111 589.533 264.391C591.73 264.594 592.965 267.075 591.8 268.952" fill="#F6921D"/>
<path d="M418.959 248.558L412.061 241.819C411.656 241.426 411.688 240.737 412.159 240.429C414.243 239.073 417.199 239.412 419.224 241.391C421.246 243.362 421.655 246.314 420.35 248.425C420.05 248.908 419.365 248.951 418.959 248.558" fill="#DB5D1F"/>
<path d="M418.293 249.232C418.726 249.656 418.628 250.361 418.11 250.685C416.038 251.974 413.133 251.619 411.142 249.672C409.113 247.693 408.704 244.745 410.009 242.63C410.305 242.151 410.994 242.104 411.399 242.497L418.293 249.232Z" fill="#DB5D1F"/>
<path d="M576.987 142.361C575.075 140.168 573.244 140.592 571.659 143.003C567.928 148.698 564.122 154.692 560.745 156.764C570.576 141.527 571.714 126.189 571.776 120.693C571.784 120.175 572.492 120.034 572.707 120.506C575.819 127.244 576.921 134.972 576.987 142.361Z" fill="#FF825C"/>
</svg>
