<svg width="64" height="64" viewBox="0 0 64 64" fill="none" xmlns="http://www.w3.org/2000/svg">
<path fill-rule="evenodd" clip-rule="evenodd" d="M0.437641 37.9339C-1.33328 28.434 3.83493 19.4106 10.2529 12.186C16.3982 5.26823 24.5779 0.403358 33.8309 0.343535C43.4472 0.281363 53.1529 4.02474 58.7106 11.8727C64.0903 19.4694 62.9479 29.296 60.7378 38.3385C58.494 47.5187 55.1098 57.1259 46.6303 61.2982C37.8906 65.5986 27.6519 63.2914 18.9601 58.8951C10.2063 54.4674 2.23537 47.5777 0.437641 37.9339Z" fill="#FFC136"/>
<path fill-rule="evenodd" clip-rule="evenodd" d="M13.4891 8.57438C20.5018 2.83868 30.2488 3.0228 39.0799 5.04476C47.5359 6.98083 55.2206 11.5143 59.4382 19.0948C63.8215 26.973 65.1162 36.6391 61.1676 44.7439C57.3454 52.5893 48.7516 56.0769 40.3215 58.3334C31.763 60.6243 22.3398 62.17 15.0894 57.078C7.61655 51.8298 4.90096 42.3726 4.59983 33.2459C4.29657 24.0542 6.37019 14.3969 13.4891 8.57438Z" fill="#7E57C2"/>
<rect x="13.3325" y="16.124" width="36" height="31.3043" rx="4" fill="white"/>
<path d="M17.6087 17.93C17.3048 17.93 17.0133 18.0537 16.7984 18.2739C16.5835 18.494 16.4628 18.7926 16.4628 19.104C16.4628 19.4153 16.5835 19.7139 16.7984 19.934C17.0133 20.1542 17.3048 20.2779 17.6087 20.2779C17.9127 20.2779 18.2041 20.1542 18.419 19.934C18.634 19.7139 18.7547 19.4153 18.7547 19.104C18.7547 18.7926 18.634 18.494 18.419 18.2739C18.2041 18.0537 17.9127 17.93 17.6087 17.93Z" fill="#7E57C2"/>
<path d="M22.4024 17.93C22.0985 17.93 21.807 18.0537 21.5921 18.2739C21.3772 18.494 21.2565 18.7926 21.2565 19.104C21.2565 19.4153 21.3772 19.7139 21.5921 19.934C21.807 20.1542 22.0985 20.2779 22.4024 20.2779C22.7064 20.2779 22.9978 20.1542 23.2128 19.934C23.4277 19.7139 23.5484 19.4153 23.5484 19.104C23.5484 18.7926 23.4277 18.494 23.2128 18.2739C22.9978 18.0537 22.7064 17.93 22.4024 17.93Z" fill="#7E57C2"/>
<path d="M45.9867 19.6909C45.9867 20.0155 45.5726 20.2779 45.0602 20.2779H31.1632C30.6508 20.2779 30.2367 20.0155 30.2367 19.6909V18.517C30.2367 18.1924 30.6508 17.93 31.1632 17.93H45.0602C45.5726 17.93 45.9867 18.1924 45.9867 18.517V19.6909Z" fill="#7E57C2"/>
<path d="M15.6802 26.1675C15.6802 24.5107 17.0234 23.1675 18.6802 23.1675H43.9846C45.6414 23.1675 46.9846 24.5107 46.9846 26.1675V42.0806C46.9846 43.7374 45.6414 45.0806 43.9846 45.0806H18.6802C17.0234 45.0806 15.6802 43.7374 15.6802 42.0806V26.1675Z" fill="#7E57C2"/>
<rect x="35.2454" y="24.7327" width="10.1739" height="18.8548" rx="2" fill="white"/>
<rect x="17.2455" y="24.7327" width="16.4348" height="8.7291" rx="2" fill="white"/>
<rect x="17.2455" y="34.8585" width="16.4348" height="8.7291" rx="2" fill="white"/>
</svg>
